<svg width="374" height="429" viewBox="0 0 374 429" fill="none" xmlns="http://www.w3.org/2000/svg">
<path d="M180.602 0.816371C177.222 1.58678 174.926 3.29507 173.651 5.90776C172.503 8.31947 173.3 11.3676 175.277 12.272C177.413 13.1764 179.295 12.272 179.709 10.1282C179.869 9.25735 179.741 8.8889 179.103 8.21898C178.115 7.1806 177.318 7.11361 176.297 7.95101C175.213 8.8889 175.66 9.7263 177.095 9.45833C178.083 9.29085 178.243 9.35784 178.243 9.92727C178.243 10.7982 177.637 11.3676 176.712 11.3676C175.532 11.3676 174.735 10.7312 174.225 9.45833C173.778 8.35296 173.778 8.18548 174.48 6.74516C176.329 2.89312 184.269 1.18483 190.679 3.29507C194.187 4.46743 195.335 6.17572 194.378 8.8554C193.74 10.5972 193.198 11.1331 192.209 10.9656C191.03 10.7982 191.253 9.59231 192.528 9.19036C194.091 8.72142 193.676 7.34808 191.922 7.34808C190.934 7.34808 189.722 8.68792 189.722 9.75979C189.722 10.6977 191.444 12.3725 192.369 12.3725C193.517 12.3725 195.016 10.9322 195.653 9.15687C196.1 7.91752 196.132 7.44857 195.845 6.4102C194.569 1.98873 187.235 -0.690948 180.602 0.816371Z" fill="#7C8EBE"/>
<path d="M180.315 13.8129C179.646 14.4158 179.518 14.7508 179.677 15.4877C179.996 16.727 180.793 16.66 180.793 15.4207C180.793 14.0809 181.814 13.7124 182.994 14.6168C185.704 16.7605 182.643 19.8422 176.457 21.2825C173.108 22.0529 163.701 22.0194 156.399 21.249C147.439 20.2776 137.904 20.9475 134.492 22.7898C133.822 23.1583 133.28 23.2922 133.28 23.1248C133.28 21.6174 135.481 19.7417 138.255 18.8708C144.027 17.129 149.862 17.33 161.15 19.7417C167.145 21.0145 169.569 21.2155 172.981 20.7801C178.242 20.1101 182.165 18.6363 182.93 17.0285C183.408 16.0236 182.994 15.8226 181.941 16.5596C181.017 17.2295 175.245 17.8994 173.268 17.5644C172.503 17.4639 171.578 17.062 171.163 16.727L170.43 16.0906L171.131 15.3537C171.801 14.6168 171.929 14.6168 173.459 15.0187C175.373 15.5212 175.787 15.3537 174.575 14.5163C173.332 13.6789 170.685 13.6789 170.079 14.5163C169.441 15.4542 169.537 16.4926 170.27 17.4974C171.163 18.6698 172.758 19.0718 175.66 18.9043C177.286 18.8038 177.828 18.8373 177.286 19.0383C176.839 19.2057 175.341 19.3397 173.906 19.3732C171.1 19.4067 168.708 18.7368 166.221 17.2295C165.136 16.5261 164.849 16.1911 164.849 15.4207C164.849 14.7508 164.626 14.3823 164.052 14.1144C162.777 13.5114 162.394 13.6119 162.203 14.7173C161.916 16.0571 162.203 16.6935 163.191 16.9615C163.67 17.062 165.328 17.8324 166.922 18.6363C169.091 19.7417 169.505 20.0431 168.676 19.9427C168.07 19.8422 166.699 19.6747 165.647 19.5742C164.594 19.4402 160.863 18.7703 157.356 18.0334C149.448 16.3586 144.122 15.9901 139.977 16.861C135.066 17.8659 132.579 19.7752 132.1 22.8568C131.973 23.8617 131.686 24.3306 130.921 24.7996C130.378 25.1345 129.518 26.1059 129.007 26.9433L128.083 28.4841L127.509 27.4792C126.297 25.369 124.543 24.967 122.598 26.3069C121.673 26.9433 121.45 28.3501 122.375 27.9482C124.607 26.9768 124.702 26.9433 125.563 27.4792C127.54 28.6181 127.636 31.1303 125.818 33.341L124.766 34.6139L122.088 33.341C120.621 32.6041 117.209 31.2978 114.498 30.3599L109.556 28.6851L110.576 27.7472C111.979 26.4409 114.116 26.4074 115.869 27.6467C116.858 28.3501 117.145 28.4506 117.368 28.0822C117.783 27.3788 117.559 27.0103 116.284 26.3404C114.466 25.4025 111.947 25.503 110.193 26.5749C109.396 27.0438 108.631 27.7137 108.471 28.0152C108.184 28.4841 107.929 28.5176 105.92 28.1827C102.763 27.6132 97.6613 27.6802 94.7914 28.3166C92.0172 28.9196 89.785 29.891 86.3092 32.0347C83.8219 33.542 83.79 33.5755 82.7377 33.0396C77.253 30.2929 70.4608 33.0061 70.4608 37.997C70.4608 41.1791 72.9481 43.6578 77.0936 44.6292C78.7198 45.0311 78.9112 45.1651 79.0068 46.0025C79.1663 47.5098 78.5923 47.8783 76.2007 47.8783C74.7338 47.8783 73.9366 47.7108 73.6815 47.4093C73.4902 47.1414 72.693 46.8399 71.8958 46.7394C71.1305 46.6054 70.3333 46.2705 70.1101 46.0025C69.855 45.7011 69.4404 45.5671 68.994 45.6676C68.4838 45.8015 68.2606 45.7011 68.133 45.1986C68.0374 44.7967 67.6866 44.5287 67.3358 44.5287C66.9532 44.5287 66.5705 44.3612 66.4748 44.1937C66.3792 43.9928 66.0603 43.8588 65.8052 43.8588C65.5501 43.8588 64.7529 43.3898 64.0195 42.8539C63.3179 42.2845 62.4569 41.849 62.1062 41.849C61.7873 41.849 60.9901 41.6145 60.3523 41.3466C59.4595 40.9446 59.3 40.7436 59.587 40.3752C60.0335 39.8058 62.3613 39.1693 63.9238 39.1693C64.6253 39.1693 65.7414 39.5378 66.6662 40.0737C67.7504 40.7436 68.2925 40.9111 68.5476 40.6432C69.2172 39.9397 68.4519 39.2028 66.4111 38.4659C63.7644 37.5615 61.7873 37.7625 59.1725 39.1693C57.3549 40.1742 57.2592 40.2077 55.1227 39.8728C47.055 38.5329 41.921 41.2461 40.7412 47.3759C40.4861 48.8832 40.0715 49.7541 39.1787 50.8259C37.4248 52.9362 36.5957 55.0464 36.4044 57.7931C36.2131 60.8077 36.7871 62.1476 38.4134 62.4825C40.3585 62.851 42.0805 62.1141 42.0805 60.9082C42.0805 60.0708 41.3152 60.1043 40.1672 60.9752C39.0511 61.8461 37.7118 61.6451 37.4567 60.5063C37.2016 59.4344 38.1583 55.3479 39.1149 53.4721C40.3904 51.0604 40.6455 50.9599 41.4427 52.5342C43.069 55.9173 47.7884 57.4581 51.0729 55.7163C51.5512 55.4484 52.0933 54.9459 52.2847 54.5775C52.5717 54.0081 52.5398 53.9076 51.902 53.9076C51.4875 53.9411 50.8178 54.142 50.3714 54.41C48.4262 55.5824 44.7272 54.477 42.9096 52.2328C41.3152 50.2565 41.921 49.4861 46.194 48.0123C48.4581 47.2084 49.0002 47.1414 51.4237 47.3759L54.1342 47.6103L54.2617 49.4861C54.4212 52.0988 55.5054 54.276 57.8651 56.7882C60.0972 59.1999 61.6279 60.0038 65.4225 60.8077C69.9506 61.7791 74.5744 60.9082 79.3576 58.2285L81.7173 56.8887L83.1842 58.53C83.9814 59.4344 85.3845 60.6738 86.2454 61.2767C87.1383 61.9131 87.9036 62.516 87.9355 62.6835C87.9993 62.8175 88.9559 62.9515 90.072 62.9515C91.9853 62.9515 92.1447 62.8845 93.0695 61.7791C94.2812 60.3053 94.4725 58.195 93.4202 57.5921C92.5593 57.0897 92.0491 57.4581 92.4636 58.262C92.9738 59.2669 92.8463 60.1713 92.0491 61.1427C91.4113 61.9131 91.1562 62.0136 90.1677 61.8126C88.7327 61.5446 86.6281 60.0708 84.4916 57.8601L82.8015 56.1183L85.0975 53.9076C86.7237 52.2998 87.3296 51.4959 87.1702 51.0939C87.0745 50.7924 86.8513 50.558 86.7237 50.558C86.5962 50.558 85.5758 51.4959 84.4916 52.6012L82.4508 54.6445L81.8768 53.9076C81.0477 52.8357 81.1752 52.4672 82.5145 51.8308C84.3959 50.9264 85.9903 49.3521 85.5439 48.8832C85.2569 48.5482 84.7467 48.7492 83.3117 49.6871C81.1115 51.1274 80.7288 51.1609 80.4737 50.089C80.2186 48.9502 80.4099 48.7157 82.2913 48.0793C84.3003 47.3759 85.4482 46.6054 85.4482 46.0025C85.4482 45.2656 84.1408 45.4666 82.7377 46.371C81.2071 47.3759 80.4418 47.4428 80.1867 46.5719C79.8678 45.4666 80.3143 45.0311 82.9291 44.0932C84.3321 43.5573 85.8628 42.7869 86.3411 42.3515C87.1383 41.648 87.1383 41.5476 86.6281 41.3131C86.2454 41.1791 85.4801 41.3801 84.6191 41.849C82.7059 42.8539 80.665 43.1219 80.665 42.4184C80.665 40.9446 81.239 40.2747 82.7377 40.0737C84.6829 39.7723 85.4163 39.3368 85.9265 38.064C86.2773 37.1596 86.2773 36.8246 85.8309 35.7193C85.3526 34.4129 85.3526 34.3794 86.1179 33.7765C87.2021 32.9056 92.336 30.8958 95.4292 30.1254C97.3744 29.623 99.0963 29.4555 102.189 29.489C107.515 29.5225 107.929 29.6565 107.929 31.1303V32.3027L103.306 32.5036C99.7978 32.6711 98.2353 32.8721 96.8323 33.408C90.8054 35.7193 87.8717 39.4038 87.4253 45.2991C87.1702 49.0841 88.7327 51.8978 91.1243 51.8978C92.9419 51.8978 93.7391 50.29 92.5274 49.1176C91.6664 48.3137 91.2519 48.4142 90.5822 49.5866L89.9763 50.625L89.3705 49.6871C88.4776 48.2133 88.5414 43.1889 89.5299 41.2461C92.3042 35.7527 98.8412 32.7716 106.335 33.6425C108.216 33.8435 108.599 34.011 110.002 35.3173C112.968 38.064 117.719 38.8009 122.375 37.1931L124.671 36.3892L125.946 37.2936C127.445 38.3319 127.54 38.3319 127.54 37.5615C127.54 37.2266 127.094 36.5901 126.552 36.1882L125.563 35.4178L126.584 34.3459C127.158 33.7765 127.668 33.4415 127.732 33.6425C128.784 36.5232 130.347 37.8295 132.706 37.8295C134.779 37.8295 136.405 37.0926 136.788 35.9537C137.33 34.4464 136.373 32.4701 135.098 32.4701C134.651 32.4701 134.556 32.6041 134.715 33.0396C135.64 35.4178 135.64 35.4178 135.034 36.1212C134.269 37.0591 132.196 37.0591 130.793 36.1547C128.146 34.4464 128.146 29.422 130.793 26.5079C131.367 25.9384 131.909 25.436 132.037 25.436C132.164 25.436 132.706 25.8714 133.217 26.4409C134.428 27.6802 135.576 27.7472 136.692 26.5749C137.745 25.4695 137.266 24.7661 136.055 25.6035C135.098 26.2399 134.077 26.0389 133.599 25.101C133.185 24.2971 133.599 24.0627 136.469 23.2253C139.084 22.4883 143.197 22.4548 154.805 23.0578C164.531 23.5267 168.261 23.4262 174.575 22.4548C179.518 21.6844 181.878 20.8135 183.695 19.1053L185.066 17.8324L186.342 19.2392C187.841 20.847 190.137 21.8854 193.868 22.6223C197.63 23.3927 207.994 23.5937 217.911 23.0913C227.701 22.5888 231.559 22.8233 234.812 24.0962C236.406 24.7326 236.566 24.9001 236.279 25.4695C235.864 26.2399 234.939 26.2734 233.855 25.57C232.675 24.7326 232.133 25.4695 233.281 26.4074C234.334 27.2783 235.322 27.3118 236.374 26.4409C237.49 25.503 238.32 25.6035 239.308 26.8093C241.891 30.0584 242.082 33.475 239.723 35.6858C239.34 36.0877 238.67 36.5232 238.256 36.6571C237.363 36.9251 235.577 36.3222 234.844 35.4848C234.302 34.8484 234.334 34.7814 235.29 33.609C236.024 32.7381 236.215 32.2692 235.992 32.0347C235.737 31.7667 235.386 31.8672 234.78 32.3697C233.504 33.341 233.377 35.4848 234.493 36.6571C235.163 37.3271 235.609 37.4945 237.012 37.4945C239.18 37.4945 240.966 36.2552 241.987 34.011L242.72 32.4701L243.485 33.4415C244.474 34.6809 244.442 34.8819 243.294 35.7527C242.784 36.1882 242.337 36.6571 242.337 36.8246C242.337 37.3941 243.294 37.1931 244.155 36.4897C245.207 35.6523 245.462 35.6523 248.492 36.6571C251.521 37.6955 253.721 37.729 256.559 36.7911C258.409 36.1882 259.015 35.7862 260.545 34.1114L262.363 32.1352H265.966C267.975 32.1352 270.622 32.3697 271.834 32.6376C278.275 34.078 282.229 38.5664 282.325 44.5287C282.357 46.7729 281.623 48.8162 280.635 49.1511C280.38 49.2516 280.284 49.1511 280.412 48.9167C280.826 48.2467 280.284 47.2084 279.519 47.2084C278.594 47.2084 278.052 47.8113 278.052 48.8832C278.052 50.0555 278.594 50.558 279.838 50.558C283.473 50.558 284.621 44.4282 282.038 38.9349C279.519 33.5755 273.907 30.8288 265.392 30.7953H262.108V29.7905C262.108 28.9196 262.236 28.7856 263.32 28.5846C263.958 28.4506 266.732 28.3501 269.442 28.3501C273.396 28.3501 274.895 28.5176 276.936 29.0871C279.583 29.7905 284.972 32.4701 284.844 33.0061C284.812 33.1736 284.621 33.7765 284.398 34.3459C283.537 36.6236 285.163 38.4994 287.969 38.4994C289.213 38.4994 289.468 38.6334 289.787 39.3368C290.01 39.8058 290.169 40.4422 290.169 40.7436C290.169 41.2796 289.914 41.2796 285.801 40.6432C284.876 40.5092 284.43 40.5427 284.43 40.7771C284.43 41.3801 285.705 41.9495 288.256 42.5189L290.648 43.0214V44.3612C290.648 45.7011 290.648 45.7011 289.532 45.6006C288.926 45.5336 287.714 45.1986 286.821 44.8302C285.896 44.4617 285.131 44.3277 284.972 44.4952C284.43 45.0646 285.067 45.4666 287.778 46.237L290.488 47.0409V48.3472C290.488 49.6201 290.488 49.6536 289.404 49.4526C288.798 49.3521 287.778 48.8832 287.108 48.4142C285.96 47.6103 284.972 47.5433 285.259 48.3472C285.354 48.5817 286.343 49.2851 287.491 49.888C289.627 50.9934 289.914 51.5294 289.085 52.7352C288.639 53.3716 288.543 53.3381 286.694 51.7973C285.609 50.9264 284.525 50.223 284.27 50.223C283.218 50.223 283.919 51.2614 286.024 52.8692C288.065 54.4435 288.224 54.6445 287.905 55.3144C287.204 56.6877 284.876 59.0324 283.632 59.6354C281.081 60.8747 279.041 60.2718 278.371 58.0611C277.893 56.5537 277.255 56.7547 277.287 58.396C277.35 60.5063 278.243 61.1092 281.177 61.1092C283.314 61.0757 283.888 60.9417 285.163 60.1713C285.992 59.6689 287.268 58.4295 287.969 57.4246C288.703 56.4198 289.34 55.5824 289.436 55.5824C289.5 55.5824 290.743 56.1853 292.178 56.8887C295.622 58.597 297.631 59.0659 301.49 59.0659C310.068 58.999 315.648 54.8789 316.7 47.7778L317.051 45.2656L318.263 45.0646C320.878 44.6292 326.873 45.8685 327.797 47.0409C328.403 47.7778 327.638 49.6536 326.203 51.0269C324.577 52.5677 322.791 53.1372 321.133 52.6347C319.634 52.1323 318.231 52.1323 318.231 52.5677C318.231 53.2711 320.336 54.0415 322.217 54.0415C324.864 54.075 326.936 52.9697 328.148 50.9599C328.658 50.1225 329.073 49.1511 329.073 48.8162C329.073 47.8113 329.615 48.1128 330.667 49.7206C332.325 52.2328 332.899 53.8741 332.899 56.1518C332.899 58.865 332.198 59.7694 330.348 59.4679C329.009 59.2669 328.595 59.5014 329.105 60.1713C329.328 60.4058 330.093 60.6068 330.954 60.6068C332.23 60.6068 332.612 60.4393 333.41 59.5684C334.239 58.6305 334.334 58.3625 334.271 56.3863C334.175 53.1037 333.442 51.2279 331.273 48.7157C330.253 47.5098 329.392 46.3375 329.392 46.103C329.392 45.835 329.169 44.8637 328.882 43.8923C328.244 41.581 326.139 39.1693 323.875 38.1645C321.834 37.2266 317.115 36.8581 314.883 37.461C313.448 37.8295 313.32 37.8295 311.758 36.7576C310.387 35.8197 309.781 35.6523 307.867 35.5518C305.189 35.4178 303.116 35.8197 302.988 36.5232C302.925 36.9586 303.435 37.0256 306.177 36.9921C308.728 36.9921 309.749 37.1261 310.737 37.595L312.013 38.2315L310.897 38.7339C310.291 39.0019 309.334 39.4708 308.76 39.7388C308.218 40.0067 307.612 40.1407 307.421 40.0067C307.23 39.9062 306.974 40.0402 306.879 40.3082C306.783 40.6097 306.337 40.8441 305.922 40.8441C305.476 40.8441 305.061 41.0786 304.934 41.3801C304.838 41.648 304.551 41.8155 304.264 41.6815C304.009 41.581 303.594 41.6815 303.339 41.916C303.084 42.1505 302.701 42.3515 302.478 42.385C301.713 42.5189 299.162 43.8923 298.811 44.3277C298.588 44.5957 298.205 44.7297 297.95 44.6292C297.695 44.5287 297.249 44.6962 296.93 44.9641C296.579 45.2991 295.59 45.5336 294.155 45.6006L291.923 45.7011L291.828 44.2942L291.732 42.8874L293.677 42.4854C295.941 42.0165 297.759 40.7771 299.002 38.8009C299.704 37.6955 299.863 37.0256 299.895 35.4513C299.895 33.0731 299.226 31.9677 297.025 30.7953C294.761 29.623 290.871 29.6565 288.001 30.8958L285.992 31.7667L283.473 29.9579C278.945 26.7423 273.428 25.6035 266.7 26.5749C264.627 26.8763 262.523 27.2113 262.076 27.3118C261.47 27.4457 260.96 27.2448 259.94 26.3404C258.473 25.034 256.528 24.5651 254.838 25.0675C253.466 25.503 252.86 26.0389 252.86 26.8093C252.86 27.4457 252.892 27.4457 254.136 26.7758C254.806 26.4074 255.922 26.1059 256.591 26.1059C257.739 26.1059 259.876 27.1443 259.876 27.6802C259.876 27.8477 258.632 28.3166 257.07 28.7521C255.539 29.1875 252.446 30.4269 250.15 31.5323C247.886 32.6376 245.845 33.609 245.622 33.676C245.431 33.7765 244.825 33.2406 244.283 32.4366C241.955 29.0536 243.804 25.7375 247.248 27.1108C248.492 27.5797 248.587 26.9098 247.439 25.7375C246.579 24.7996 246.292 24.6991 245.175 24.8666C243.517 25.101 242.433 26.1729 242.082 27.9147L241.795 29.288L241.317 28.0822C241.03 27.4123 240.105 26.2399 239.212 25.4695C238.32 24.6656 237.682 23.8282 237.746 23.5937C238.001 22.9573 236.119 19.2392 235.163 18.4688C233.249 16.861 231.464 16.5596 224.321 16.5596C217.433 16.5596 216.062 16.727 210.226 18.2679C207.101 19.0718 200.277 20.2441 200.054 19.9761C199.958 19.9092 200.915 19.5072 202.158 19.0718C203.402 18.6698 204.486 18.1674 204.582 17.9999C204.678 17.8659 205.475 17.33 206.336 16.8945C207.739 16.1241 207.898 15.9231 207.898 14.9183C207.898 13.6789 207.516 13.3774 206.336 13.6789C205.762 13.8464 205.475 14.2483 205.22 15.2197C204.901 16.3586 204.614 16.66 203.115 17.4639C199.639 19.3062 194.473 19.8757 191.954 18.7368C191.317 18.4688 191.508 18.4353 193.07 18.5693C195.685 18.8038 198.587 18.2679 199.512 17.3635C200.915 15.9566 200.118 13.6789 198.013 13.21C196.801 12.942 194.92 13.5784 194.473 14.4493C193.995 15.3872 194.282 15.5212 195.462 14.8848C196.036 14.5833 196.993 14.3823 197.79 14.4493C198.97 14.5498 199.129 14.6503 199.225 15.4542C199.384 16.8275 198.141 17.4974 195.016 17.6649C193.007 17.7654 191.859 17.6314 190.009 17.0955C186.98 16.1911 186.725 16.1911 187.171 17.062C187.586 17.8994 191.604 19.9092 193.804 20.3781C197.248 21.115 202.445 20.847 210.609 19.4402C219.856 17.8659 223.683 17.5309 227.541 18.0334C231.272 18.5023 233.441 19.2057 234.716 20.3111C235.705 21.182 236.821 23.3257 236.47 23.6942C236.374 23.7612 235.45 23.4597 234.461 22.9908C229.997 20.914 220.622 20.2776 211.565 21.383C203.53 22.3879 199.576 22.5888 196.738 22.1199C190.743 21.1485 187.49 19.7752 186.629 17.9329C185.991 16.5261 186.278 15.2532 187.362 14.4828C188.383 13.7794 189.786 14.2148 190.041 15.3202C190.264 16.3921 190.806 16.3921 190.934 15.3537C191.061 14.2818 189.754 13.0425 188.478 13.0425C187.522 13.0425 185.577 14.1813 185.577 14.7843C185.577 14.9852 185.258 14.8513 184.875 14.4828C183.153 12.8415 181.623 12.607 180.315 13.8129ZM261.088 30.0249C261.215 30.9628 260.673 31.2308 257.102 32.1352C254.423 32.8051 252.733 33.7765 253.275 34.3794C253.403 34.4799 254.838 34.078 256.528 33.5085C259.812 32.3362 261.311 32.2022 259.844 33.2406C257.867 34.6139 255.348 35.2838 251.904 35.2838C250.054 35.3173 248.141 35.1833 247.599 35.0493C246.674 34.7814 246.674 34.7479 247.28 34.2454C248.906 32.9391 259.015 29.0536 260.354 29.221C260.737 29.2545 261.024 29.5895 261.088 30.0249ZM114.466 31.4988C117.846 32.6711 123.076 35.1163 123.076 35.5183C123.076 35.9872 120.334 36.2217 116.954 36.0877C114.466 35.9872 113.286 35.7862 112.107 35.2168C111.246 34.8149 110.608 34.4129 110.672 34.3124C110.767 34.2454 111.596 34.3794 112.553 34.6474C114.562 35.2168 116.061 35.2838 116.061 34.8484C116.061 34.4799 114.817 34.0445 112.234 33.475C109.556 32.8721 109.396 32.8051 109.077 32.1687C108.886 31.8337 108.854 31.2308 108.95 30.8288C109.109 30.1589 109.269 30.0919 110.289 30.2594C110.927 30.3599 112.808 30.9293 114.466 31.4988ZM296.42 32.1352C298.747 33.676 299.449 36.2887 297.982 38.0975C297.121 39.2028 294.761 40.3752 292.816 40.7102C291.573 40.9111 291.541 40.8776 291.03 39.6383C290.584 38.4659 290.584 38.2984 291.03 37.997C293.805 36.1212 294.411 35.4513 293.805 34.8149C293.581 34.5804 293.039 34.8149 291.987 35.6523C291.19 36.2887 290.393 36.8246 290.201 36.8246C290.042 36.8246 289.245 35.9537 288.448 34.9154C286.726 32.6376 286.821 32.4032 289.691 31.6662C292.21 30.9963 294.921 31.1973 296.42 32.1352ZM81.0477 33.8435C81.9724 34.0445 82.8015 34.2789 82.8653 34.3459C83.0247 34.5134 80.5375 38.4994 80.2505 38.4994C80.1229 38.4994 79.4533 38.0975 78.7517 37.6285C77.6038 36.8246 76.8385 36.7576 76.8385 37.4945C76.8385 37.662 77.5081 38.2649 78.3053 38.8679C79.6765 39.8728 79.7722 40.0067 79.5808 41.1121C79.3257 42.8204 79.0706 42.9544 76.966 42.5189C73.2032 41.715 71.3856 39.8728 71.8639 37.4275C72.5017 34.078 75.9775 32.7381 81.0477 33.8435ZM287.905 35.9872C288.862 37.3941 288.894 37.4945 288.256 37.4945C287.363 37.4945 285.801 36.6236 285.45 35.9202C285.259 35.5853 285.259 35.0158 285.45 34.4129C285.737 33.5085 285.833 33.475 286.311 33.9775C286.63 34.2454 287.331 35.1498 287.905 35.9872ZM84.8105 36.7911C84.8105 37.93 83.8538 38.8344 82.674 38.8344C81.7173 38.8344 81.7492 38.7004 82.9291 37.1261C84.1089 35.5518 84.8105 35.4178 84.8105 36.7911ZM322.249 39.0019C325.151 39.9062 327.064 41.9495 327.925 45.0646C328.116 45.768 328.084 45.768 325.565 44.8302C323.397 44.0263 322.44 43.8588 319.889 43.8588L316.796 43.8253L315.648 41.3466C314.691 39.2363 314.564 38.8344 315.01 38.7339C316.254 38.3654 320.814 38.5329 322.249 39.0019ZM314.468 41.715C315.01 42.9209 315.329 44.0263 315.17 44.1602C315.01 44.3277 313.894 44.7967 312.651 45.1986C311.439 45.6341 308.76 46.8399 306.751 47.8783C301.968 50.3905 300.31 50.8929 296.675 50.8929C293.263 50.8929 291.764 50.625 291.541 50.022C291.445 49.7541 291.477 49.0172 291.604 48.3472L291.796 47.1079L293.645 47.3089C294.985 47.4763 295.654 47.3759 296.164 47.0409C296.643 46.6724 297.025 46.6054 297.599 46.8399C298.205 47.1079 298.524 47.0409 298.811 46.6724C299.034 46.4045 299.385 46.237 299.608 46.3375C299.832 46.438 300.119 46.371 300.214 46.2035C300.342 46.0025 300.661 45.8685 301.011 45.8685C301.33 45.8685 301.649 45.6341 301.777 45.3661C301.872 45.0981 302.223 44.8637 302.574 44.8637C302.925 44.8637 303.307 44.6962 303.403 44.5287C303.499 44.3277 303.881 44.1937 304.232 44.1937C304.583 44.1937 304.934 43.9593 305.029 43.6913C305.157 43.4233 305.571 43.1889 305.986 43.1889C306.432 43.1889 306.847 42.9544 306.974 42.6529C307.07 42.385 307.357 42.2175 307.612 42.318C307.835 42.4184 308.282 42.2175 308.569 41.8825C308.856 41.5141 309.239 41.3131 309.462 41.3801C309.685 41.4806 310.291 41.0786 310.833 40.5427C311.407 39.9062 312.14 39.5043 312.651 39.5043C313.352 39.5043 313.607 39.8058 314.468 41.715ZM56.3344 41.3131C56.3982 41.3801 55.9518 42.4519 55.4097 43.7583L54.3893 46.1365L51.4556 45.969C49.0321 45.8015 48.1711 45.902 46.194 46.5385C44.8866 46.9404 43.4198 47.5098 42.9415 47.7778L42.0167 48.2802L42.2399 47.1414C42.3675 46.5385 42.6226 45.8015 42.8139 45.5336C45.1736 42.117 48.5538 40.7102 53.5602 41.0451C55.0589 41.1456 56.3026 41.2796 56.3344 41.3131ZM60.7988 43.5573C61.5322 44.0932 62.3294 44.5287 62.6164 44.5287C62.8715 44.5287 63.1904 44.6627 63.286 44.8637C63.3817 45.0311 63.7644 45.1986 64.1151 45.1986C64.4659 45.1986 64.8167 45.4331 64.9123 45.7011C65.0399 45.969 65.295 46.2035 65.5182 46.2035C65.7414 46.2035 66.0922 46.438 66.3154 46.7059C66.5386 46.9739 67.0488 47.2084 67.4315 47.2084C67.846 47.2084 68.2606 47.4428 68.3562 47.7443C68.4838 48.0793 68.7708 48.1798 69.1534 48.0458C69.4723 47.9453 69.9187 48.0793 70.142 48.3807C70.429 48.7157 71.1305 48.8832 72.406 48.8832C73.4583 48.8832 74.5744 49.0506 74.8933 49.2851C75.3397 49.5531 75.8499 49.5531 76.9979 49.2516C78.0502 48.9837 78.6242 48.9502 78.9112 49.2181C79.4852 49.7206 79.804 51.6298 79.3576 51.9313C79.1344 52.0653 77.5719 52.3668 75.8499 52.6012C71.8639 53.1372 70.429 52.8357 65.295 50.4575C63.1266 49.4526 60.161 48.2133 58.6623 47.7108C57.1635 47.2084 55.8242 46.6724 55.6648 46.505C55.3778 46.237 57.1954 42.5524 57.8013 42.117C58.1839 41.8825 58.8536 42.184 60.7988 43.5573ZM315.68 46.9739C315.68 50.1225 313.193 53.9076 310.227 55.2139C306.783 56.7882 302.51 57.2907 298.652 56.5537C297.568 56.3863 295.877 56.0848 294.857 55.8838C293.358 55.6159 290.329 54.5105 289.946 54.1085C289.882 54.0415 290.074 53.4386 290.361 52.7352C290.839 51.5294 290.903 51.4959 292.019 51.6968C298.492 52.9027 304.392 51.6968 311.63 47.7443C313.512 46.7059 315.17 45.8685 315.361 45.8685C315.52 45.8685 315.68 46.371 315.68 46.9739ZM60.5756 50.6585C66.6981 53.7401 71.2899 54.6445 76.105 53.7736C77.6994 53.4721 79.1982 53.1707 79.4852 53.0367C80.0591 52.8022 81.1433 54.678 80.8563 55.4149C80.1229 57.4581 70.3014 59.5014 65.4225 58.597C59.587 57.5586 56.3344 54.544 55.601 49.6201L55.3778 48.1798L56.462 48.6487C57.0679 48.9167 58.9174 49.8211 60.5756 50.6585Z" fill="#7C8EBE"/>
<path d="M53.2413 58.396C50.9772 58.9319 49.2234 59.9033 47.8522 61.4107C47.1188 62.1811 46.4491 62.6165 45.907 62.6165C42.7182 62.6165 39.2106 65.2627 38.1264 68.4783C37.3611 70.756 37.1378 74.6751 37.5843 77.6897C37.9669 80.1684 37.9669 80.1684 36.9146 82.3121C35.5753 85.1258 35.4159 87.5375 36.4044 90.0832C36.9465 91.4565 37.3292 91.959 37.8713 92.026C38.796 92.1599 38.7641 91.7245 37.7437 89.8822C36.9784 88.5089 36.9146 88.1404 37.0741 86.2312C37.2016 85.0253 37.4886 83.585 37.7756 83.0155C38.2858 82.0442 38.3177 82.0107 38.7003 82.5801C38.9236 82.9486 39.2106 83.8195 39.3381 84.5564C39.4976 85.2933 40.0078 86.5326 40.518 87.3365C41.0282 88.1404 41.4427 88.9778 41.4427 89.2458C41.4427 89.5138 41.6022 89.8152 41.7616 89.9157C41.9529 90.0162 42.0805 90.4182 42.0805 90.8201C42.0805 91.2221 42.3356 91.557 42.7182 91.6575C43.1966 91.7915 43.3241 92.026 43.1647 92.4949C43.069 92.8299 43.1647 93.3658 43.3879 93.6338C43.8343 94.2032 43.8981 94.4042 44.217 96.1125C44.3126 96.6484 44.5678 97.2848 44.8229 97.4858C45.1098 97.7538 45.2693 98.6247 45.2693 100.166C45.2693 102.142 45.1736 102.51 44.5996 102.812C43.4198 103.482 42.495 102.979 42.2718 101.572C41.7297 98.0218 40.1991 95.5095 38.0307 94.5382C33.7896 92.6959 30.0906 96.213 30.1544 101.974C30.1862 103.515 30.4413 104.955 30.8878 106.228L31.5893 108.171L30.0268 110.918C28.0497 114.334 27.1569 116.646 26.5829 119.828C26.0408 122.775 26.0089 128.235 26.4872 131.149L26.838 133.293L25.7219 134.666C24.3826 136.308 23.8724 138.317 24.2551 140.495C24.6377 142.638 25.0842 143.342 25.977 143.342C26.9655 143.342 26.9655 143.141 25.977 141.6C24.9566 140.026 24.9247 138.016 25.8495 136.442C26.2002 135.805 26.6148 135.303 26.7742 135.303C26.9018 135.303 27.7309 137.614 28.6237 140.394C29.4847 143.208 30.7283 146.691 31.3661 148.132C32.0357 149.572 32.4822 150.979 32.3865 151.213C32.2909 151.481 31.6531 152.084 30.9516 152.587C27.8265 154.73 24.5102 152.654 25.9451 149.438C26.3916 148.5 26.4234 148.199 26.0727 147.998C25.5944 147.663 24.9566 148.199 24.3507 149.405C23.4579 151.213 24 152.855 25.8814 154.061L26.8061 154.63L25.3711 155.534C24.6058 156.003 23.6492 156.908 23.2984 157.544C22.7563 158.448 22.3737 158.683 21.3532 158.85C15.6772 159.654 13.8277 169.804 16.6657 184.374C17.6542 189.399 18.1326 192.346 18.6428 197.103C18.8022 198.275 18.6428 198.074 17.431 195.428C16.6657 193.753 15.9323 191.978 15.8366 191.509C15.5815 190.504 14.6886 190.069 13.5088 190.37C12.0738 190.772 12.9348 193.117 14.5611 193.318C15.5815 193.418 16.5063 194.926 17.5267 198.074C18.1963 200.184 18.3877 204.807 17.8456 206.147C17.6861 206.582 17.5905 205.711 17.6223 203.802C17.6861 201.357 17.5586 200.586 17.1121 199.849C15.9642 197.974 13.6682 197.806 13.0305 199.515C12.6478 200.586 12.9029 202.529 13.5407 203.434C14.2422 204.405 14.4973 203.802 14.019 202.328C13.5726 200.888 13.7958 199.783 14.593 199.448C15.3583 199.146 16.1555 200.318 16.4106 202.127C16.6976 204.103 16.0598 210.233 15.454 211.104C14.7843 212.109 14.8481 212.41 15.7091 212.276C16.6657 212.143 18.292 208.625 18.9935 205.142C19.9183 200.486 19.727 195.696 18.3877 188.729C17.7499 185.413 17.0802 181.326 16.857 179.685C16.4106 175.967 16.6657 169.033 17.3672 166.287C18.3239 162.702 19.9821 160.09 21.3214 160.09C21.9272 160.09 21.9272 160.123 21.1938 161.832C19.5356 165.684 18.9935 175.364 19.9502 184.542C20.6517 191.476 20.6517 202.027 19.9502 205.477C18.6428 211.707 15.6772 215.057 13.732 212.477C12.6478 211.004 12.9348 209.965 14.4335 209.865C15.3264 209.831 15.4858 209.094 14.6886 208.826C13.2856 208.357 12.1057 209.563 12.1057 211.439C12.1057 212.343 13.2537 214.353 13.7639 214.353C13.9552 214.353 13.732 214.789 13.2537 215.291C12.1695 216.53 11.8506 218.406 12.5203 219.512C13.1899 220.55 14.2103 220.918 14.88 220.316C15.3264 219.914 15.2945 219.847 14.4654 219.713C12.2014 219.277 12.9986 215.961 15.4221 215.76C17.8137 215.559 19.4081 218.607 20.5879 225.742C21.1938 229.493 21.0981 233.144 20.0458 242.322C18.9935 251.835 19.6313 261.784 21.5765 266.339C22.0229 267.411 22.3099 268.382 22.2142 268.483C21.8953 268.818 19.5037 267.31 18.866 266.372C17.8775 264.899 17.2397 262.487 16.8251 258.869C16.3787 254.749 16.7614 250.026 18.1963 241.317C19.3443 234.283 19.727 227.216 19.1211 224C18.5152 220.65 16.0917 215.727 15.4221 216.43C15.2945 216.597 15.5177 217.87 15.8685 219.344C17.0484 223.766 16.6976 228.422 15.1351 229.158C13.9233 229.728 13.3812 229.292 13.3812 227.752C13.3812 227.015 13.6045 225.842 13.8596 225.206C14.2741 224.101 14.2741 224.034 13.7639 224.134C13.4769 224.201 12.9348 224.804 12.6159 225.541C11.8506 227.182 12.2014 228.89 13.445 229.862C14.593 230.766 15.8047 230.364 16.6976 228.757C17.2397 227.819 17.3354 227.015 17.3354 224.101C17.3354 220.617 17.3354 220.583 17.718 222.225C18.5152 225.708 18.005 229.828 16.283 233.412C15.4221 235.154 15.167 235.456 14.4017 235.456C13.2537 235.456 12.8391 235.791 12.7116 236.796C12.5521 237.968 12.9667 238.47 14.0509 238.47C14.7843 238.47 15.0713 238.269 15.3902 237.532C15.5815 237.03 16.1555 235.958 16.6657 235.121C17.144 234.283 17.7818 232.81 18.0369 231.838C18.3239 230.833 18.6109 230.096 18.6747 230.197C18.9298 230.431 17.8456 237.13 16.8889 241.485C15.6772 246.978 15.2626 250.663 15.2626 256.19C15.2626 262.152 15.741 264.798 17.2078 266.975C17.9412 268.014 21.4808 270.024 22.1186 269.756C22.3737 269.655 23.139 270.325 23.9043 271.296C24.6377 272.234 25.7857 273.239 26.4234 273.541L27.5714 274.077L26.264 274.378C24.6058 274.746 23.5854 275.885 23.3622 277.627C23.2028 278.799 23.2984 279.101 24.1913 280.005C25.3074 281.211 25.9451 281.111 25.4987 279.804C24.1913 276.187 27.3482 274.244 30.537 276.656C31.2704 277.225 31.8763 277.728 31.8763 277.828C31.8763 277.929 31.2704 279.235 30.5689 280.776C28.9107 284.226 27.2844 288.647 26.7423 291.126C26.551 292.198 26.2321 293.069 26.0727 293.069C25.5306 293.069 24.5421 290.858 24.5421 289.619C24.5421 288.915 24.829 287.776 25.1798 287.039C25.5306 286.336 25.69 285.666 25.5625 285.566C25.0204 285.231 23.9043 286.437 23.5854 287.743C23.0752 289.719 23.4579 291.528 24.7334 293.102C25.9132 294.61 25.9451 294.744 25.4987 296.385C24.7972 298.964 24.4783 304.457 24.829 307.64C25.3393 312.094 26.2321 314.774 28.2092 317.856L29.8992 320.468L29.102 322.612C28.4324 324.287 28.273 325.292 28.273 327.57C28.2411 332.996 30.4413 335.743 34.2998 335.106C37.0741 334.671 39.4657 331.924 40.1991 328.307L40.5499 326.531L41.8573 326.632L43.1966 326.732L43.1328 328.072C43.1009 328.809 43.069 329.847 43.0371 330.417C43.0052 330.953 42.782 331.69 42.495 331.991C42.2399 332.293 42.0805 332.795 42.1761 333.096C42.3037 333.364 42.2718 333.599 42.1124 333.599C41.8254 333.599 40.0396 337.183 40.0078 337.819C40.0078 338.02 39.8164 338.422 39.5932 338.69C39.37 338.992 39.2743 339.427 39.37 339.695C39.4976 339.997 39.3381 340.298 39.083 340.399C38.796 340.533 38.5728 340.968 38.5728 341.437C38.5728 341.872 38.3496 342.341 38.0626 342.442C37.8075 342.542 37.6799 342.81 37.7756 343.011C37.9031 343.212 37.7756 343.849 37.5205 344.418C37.2654 345.021 36.819 346.026 36.5638 346.662L36.0855 347.835L35.4797 346.495C35.0332 345.456 34.9057 344.351 34.9057 341.705C34.9057 338.891 34.81 338.288 34.4273 338.355C33.7896 338.489 33.4069 340.7 33.5345 343.48C33.6301 345.49 33.7896 346.126 34.6825 347.567C35.7029 349.208 35.7029 349.342 35.3521 350.849C34.7462 353.395 35.1608 358.587 36.1174 360.597C37.2335 362.908 39.4019 364.918 41.4746 365.554C42.3994 365.855 43.3241 366.09 43.5792 366.09C43.8024 366.09 44.9185 366.994 46.0665 368.066C48.4581 370.344 50.2438 371.114 53.3689 371.215C55.2502 371.282 55.5054 371.181 56.3982 370.31C57.2273 369.473 57.3867 369.071 57.3867 367.731C57.3867 366.793 57.1954 366.023 56.9403 365.789C56.3026 365.219 56.0474 365.822 56.2707 367.162C56.5895 368.904 55.9199 369.54 53.624 369.708C51.2961 369.875 49.9887 369.473 47.5015 367.698C45.5563 366.358 45.1417 365.755 46.1622 365.755C47.0231 365.755 49.0002 364.348 49.8612 363.142C51.3918 360.965 51.6469 357.649 50.4989 355.304C49.5423 353.328 49.0321 354.802 49.7974 357.415C50.2757 359.156 49.7336 361.032 48.2668 362.74C46.9594 364.248 45.1736 365.052 44.4721 364.415C43.5473 363.611 42.6545 359.793 42.5907 356.51C42.5588 352.893 42.6864 352.692 44.8547 352.692C49.6061 352.692 54.0704 348.036 55.5054 341.638C56.0156 339.293 56.0156 334.336 55.5054 331.757C55.2821 330.651 54.5487 328.507 53.8472 327C53.1775 325.493 52.6035 324.187 52.6035 324.086C52.6035 323.986 53.4007 323.282 54.3893 322.512C56.9722 320.435 57.8332 318.693 57.8651 315.444C57.8651 312.396 57.3549 311.559 55.1865 311.257C53.4007 310.989 53.4326 311.793 55.2502 312.664C56.8765 313.468 57.3549 314.841 56.749 317.152C56.3663 318.727 54.3255 321.272 52.6354 322.311L51.6788 322.88L50.8816 321.708C50.4352 321.071 49.7017 320 49.2234 319.363C48.3943 318.157 47.5015 317.822 47.5015 318.693C47.5015 318.961 48.1711 320.1 49.0002 321.239C50.467 323.182 50.4989 323.282 49.8931 323.751C48.777 324.622 48.2668 324.32 47.1188 321.976C46.5129 320.736 45.8752 319.698 45.6838 319.631C44.9823 319.363 45.0461 320.502 45.8114 321.708C46.2578 322.411 46.6405 323.416 46.6724 324.019C46.7043 324.99 46.6086 325.057 45.5882 325.158L44.4721 325.258L43.7068 322.378C42.9733 319.531 42.5907 318.861 42.0486 319.43C41.8892 319.598 42.0167 320.401 42.3675 321.373C42.6864 322.311 43.0371 323.55 43.1328 324.12C43.3241 325.091 43.2285 325.258 42.5907 325.426C40.9644 325.828 40.6774 325.526 40.1672 322.88C39.6251 320.267 39.083 318.861 38.5728 318.861C38.1583 318.861 38.1583 319.363 38.6366 322.177C38.8598 323.483 38.9236 324.622 38.8279 324.756C38.7003 324.856 38.0945 324.789 37.4886 324.555C36.4044 324.187 36.3406 324.086 36.3406 322.679C36.3406 319.33 34.2679 317.655 31.8125 318.995C30.9197 319.497 30.9197 319.497 29.8355 317.42C27.2206 312.496 26.1046 306.099 26.6786 299.333C27.0293 295.514 27.2844 294.878 28.3048 295.213C28.8469 295.413 28.9426 295.849 29.102 300.036C29.2934 305.06 29.8036 307.506 31.2704 310.587C33.662 315.511 38.7322 318.358 43.8981 317.688C46.194 317.387 47.8203 315.913 47.8203 314.104C47.8203 312.731 47.342 312.161 46.2259 312.161C45.2055 312.161 44.6315 312.731 44.6315 313.702C44.6315 314.506 45.6201 315.076 46.2578 314.64C46.481 314.506 46.5767 314.607 46.481 314.875C46.1622 315.913 44.217 316.683 42.0805 316.65C36.3406 316.516 32.1314 312.396 30.7602 305.63C30.5051 304.323 30.2819 301.543 30.2819 299.399V295.48L31.7488 294.208C33.7258 292.533 35.097 289.485 35.3202 286.336C35.4478 284.494 35.3202 283.522 34.6187 281.211C33.6301 277.828 33.5983 277.292 34.4273 276.488C35.1289 275.818 35.2883 274.646 34.6825 274.646C34.4592 274.646 33.9809 275.115 33.6301 275.651C32.8648 276.857 32.6097 276.89 31.4936 275.818C30.4732 274.88 30.4095 274.646 31.111 274.646C32.0039 274.646 33.7577 273.306 34.5868 272.033C35.4478 270.693 35.671 268.148 35.0332 266.875C34.6187 266.038 32.7373 265.2 31.972 265.502C31.1429 265.803 29.963 266.975 29.963 267.511C29.963 268.248 30.9834 268.014 31.9401 267.042C32.8011 266.172 32.8329 266.172 33.4707 266.774C33.8215 267.109 34.2679 267.947 34.4592 268.65C34.7781 269.722 34.7462 270.057 34.2041 271.028C32.4503 274.177 28.9745 274.479 25.5625 271.765C24.0318 270.526 23.8086 269.655 24.7334 268.516C25.69 267.344 25.69 266.305 24.829 265.133C23.9043 263.894 23.3622 264.497 24.1275 265.87C24.5739 266.674 24.6058 267.076 24.3507 267.511C23.7449 268.516 23.139 268.181 22.565 266.473C21.417 263.291 21.2257 259.07 21.6721 248.988C22.1504 238.236 21.9591 227.953 21.2257 223.565C20.556 219.847 19.2486 216.765 17.7499 215.492L16.6338 214.554L17.6861 213.248C19.6951 210.769 20.3647 208.592 21.3532 201.457C21.991 196.5 22.0548 192.48 21.6402 182.867C21.13 171.713 21.0981 166.153 21.6084 164.277C21.7997 163.54 22.1186 162.301 22.3099 161.497C22.6925 159.889 23.3303 159.688 24.0956 160.961C24.6058 161.765 24.6058 161.865 24.1275 162.769C23.426 163.975 23.4579 164.109 24.1913 164.109C24.9566 164.109 25.8176 162.903 25.8176 161.865C25.8176 161.463 25.3711 160.592 24.829 159.922L23.8086 158.716L24.7334 157.712C26.1365 156.137 27.7627 155.4 29.8036 155.4C32.8967 155.4 34.7462 157.109 34.7462 159.989C34.7462 161.128 34.5868 161.53 33.949 161.966C33.2475 162.435 33.0881 162.435 32.1633 161.966C30.8878 161.296 30.6008 161.296 30.6008 161.932C30.6008 162.836 31.8125 163.774 32.9605 163.774C34.7462 163.774 35.7029 162.301 35.7029 159.52C35.7029 157.243 34.9057 155.802 33.1837 154.965C32.3865 154.563 31.6531 154.194 31.5893 154.161C31.4299 154.027 33.1837 152.051 33.4707 152.051C33.5664 152.051 33.9171 152.486 34.2041 153.056C34.523 153.625 35.0651 154.061 35.4159 154.061C36.2131 154.061 36.1812 153.86 35.1608 152.285L34.2998 151.012L35.0332 148.768C35.9899 145.787 36.1812 143.476 35.7029 140.93C35.2564 138.451 34.5549 136.944 33.0562 135.169C31.8444 133.762 31.5574 132.456 31.5574 128.805C31.5893 122.407 34.5868 116.311 38.7641 114.2C41.3152 112.894 44.8547 112.726 46.7999 113.832C47.6928 114.334 47.6928 114.669 46.7043 115.339C45.7476 116.009 45.6838 116.579 46.481 117.315C47.9479 118.689 49.3828 117.382 48.9683 115.071C48.7132 113.664 47.2782 112.291 45.7476 111.99C43.4836 111.554 40.4223 111.99 38.222 113.061C35.4478 114.468 33.949 116.11 32.5141 119.359C30.8878 123.043 30.6008 124.551 30.6008 129.24C30.6008 132.958 30.5689 133.26 29.963 133.46C27.9541 134.13 27.5714 132.69 27.7946 125.656C27.9541 121.67 28.1135 120.632 29.0064 117.717C30.0906 114.167 32.0676 109.511 32.4503 109.511C32.6097 109.511 32.9924 109.745 33.3432 110.013C35.1289 111.454 37.3929 109.98 37.7756 107.133C37.9669 105.592 38.1264 105.391 39.083 104.955C39.657 104.687 40.231 104.486 40.3585 104.486C40.7412 104.486 40.1991 107.501 39.5294 108.841C38.7641 110.415 38.7003 111.186 39.37 111.186C40.0396 111.186 40.7093 109.98 41.6978 106.965C42.4631 104.587 42.6545 104.319 43.4517 104.219C44.6953 104.051 44.8229 104.788 43.8662 106.798C43.0371 108.472 42.782 109.846 43.2922 109.846C43.8343 109.846 44.6634 108.573 45.365 106.63C45.9708 104.955 46.2259 104.654 46.9594 104.553C48.2987 104.386 48.3305 105.257 46.9912 107.501C46.1622 108.908 45.907 109.645 46.1303 109.879C46.5767 110.348 48.203 108.506 48.9683 106.764C49.5742 105.357 49.8931 105.223 50.9454 106.027L51.6788 106.563L49.7655 108.673C48.6813 109.846 47.8203 110.951 47.8203 111.152C47.8203 112.124 49.2234 111.32 50.9454 109.31C52.6673 107.367 52.9543 107.166 53.5283 107.501C54.5168 108.037 57.4186 111.822 58.1202 113.463C58.8217 115.205 58.6623 116.244 57.5143 117.047C56.8128 117.516 56.462 117.55 55.601 117.282C54.453 116.913 54.0704 117.148 54.3893 118.019C54.8357 119.258 57.036 119.091 58.6304 117.684C59.5232 116.913 59.6189 116.646 59.6189 114.837C59.6189 112.994 59.5232 112.693 57.9926 110.516C57.1316 109.243 55.7923 107.669 55.0589 107.032L53.7196 105.86L54.453 104.587C57.4505 99.3616 58.5347 93.8347 57.5781 88.7099C56.8447 84.8243 55.8242 82.7811 53.4645 80.5034C51.1048 78.1921 48.8407 77.0198 46.7999 77.0198C45.9708 77.0198 45.2055 76.8858 45.1098 76.6848C45.0142 76.5173 44.8547 75.1105 44.7272 73.6032C44.5678 71.0575 44.6634 70.555 45.5563 68.0094C46.6724 64.7602 46.9912 64.2913 47.9798 64.2913C48.8407 64.2913 50.7859 66.435 51.4875 68.1768C52.0933 69.6842 52.0933 71.8949 51.4875 73.0003C51.2324 73.4692 51.041 74.2061 51.0091 74.6416V75.479L51.9339 74.5411C53.1137 73.3352 53.624 71.1245 53.2413 68.9137C52.7311 66.1671 51.6788 64.6598 49.4785 63.4874C48.9045 63.1859 48.5219 62.7505 48.6494 62.583C49.5104 61.0757 55.3778 58.9319 57.2273 59.4009C58.3434 59.7024 58.5028 60.7072 57.6737 62.2815C57.0998 63.3534 57.036 63.7219 57.323 64.0233C58.3115 65.0617 59.6508 62.1811 59.1725 60.1378C58.7579 58.4295 56.3026 57.6926 53.2413 58.396ZM44.9823 65.5642C43.7387 68.1098 43.2922 70.555 43.3879 73.9046L43.5154 77.0868L41.3471 78.1251C40.1672 78.6611 39.1149 79.0295 38.9873 78.929C38.8917 78.7951 38.796 77.1538 38.796 75.278C38.796 71.5264 39.2424 69.5837 40.7412 67.2389C41.634 65.7986 43.7387 64.2913 44.8866 64.2913H45.5882L44.9823 65.5642ZM49.2872 79.063C52.6035 80.5703 54.3893 83.183 55.2821 87.8055C56.3344 93.0978 55.0908 101.505 52.8586 104.587C52.476 105.156 52.3484 105.156 51.2324 104.654C50.2757 104.252 50.0525 103.984 50.18 103.482C50.2757 103.113 50.4352 102.544 50.5308 102.209C51.041 100.266 51.2642 96.3469 50.9772 93.9352C50.5308 90.1502 49.9249 88.2074 47.629 82.9821C46.5129 80.4699 45.5882 78.3596 45.5882 78.2591C45.5882 78.0246 48.2349 78.5941 49.2872 79.063ZM45.1098 81.7092C45.6838 83.451 46.8956 86.6666 47.7884 88.8104C49.9887 94.1027 50.2438 95.4426 49.7336 99.6296C49.5104 101.472 49.1915 103.147 49.0321 103.381C48.7451 103.783 47.0231 103.448 46.481 102.879C46.3216 102.711 46.3854 101.807 46.5767 100.835C46.8318 99.5291 46.8318 98.9596 46.5767 98.6917C46.3854 98.4907 46.2259 97.3853 46.2259 96.2465C46.2259 94.7726 46.0665 94.0022 45.7157 93.6003C45.4287 93.3323 45.2693 92.8634 45.365 92.5954C45.4606 92.3609 45.3331 91.959 45.078 91.758C44.8229 91.5235 44.6315 91.0881 44.6315 90.7531C44.6315 90.4182 44.4083 89.9827 44.1532 89.7482C43.8981 89.5138 43.6749 89.1118 43.6749 88.8438C43.6749 88.6094 43.4517 88.3079 43.1966 88.2074C42.9415 88.0734 42.7182 87.7385 42.7182 87.4035C42.7182 87.0351 42.5907 86.6666 42.3994 86.5661C42.2399 86.4656 42.0805 86.1307 42.0805 85.8962C42.0805 85.6282 41.5065 84.4894 40.805 83.317C40.1034 82.1781 39.5613 81.1063 39.6251 80.9053C39.7845 80.4029 43.1328 78.3596 43.643 78.4601C43.8981 78.4936 44.5359 79.8669 45.1098 81.7092ZM37.8394 96.1125C38.4134 96.4809 39.083 97.2848 39.3381 97.9213C40.0078 99.5961 40.5817 102.845 40.2629 103.147C40.1353 103.314 39.4976 103.515 38.8917 103.649C37.8394 103.85 37.7118 103.783 36.7552 102.343C35.7666 100.869 34.7462 100.299 34.7462 101.237C34.7462 101.472 35.097 102.209 35.5434 102.879C35.9899 103.549 36.3406 104.185 36.3406 104.286C36.3406 104.721 32.546 107.133 32.3546 106.798C31.8444 105.927 31.3342 101.438 31.5893 99.998C32.259 96.2465 35.2246 94.4042 37.8394 96.1125ZM36.6276 107.066C36.2769 108.841 34.5868 109.913 33.9171 108.774C33.6939 108.439 36.1493 105.826 36.6914 105.826C36.819 105.826 36.7871 106.396 36.6276 107.066ZM30.7283 135.035C30.9834 135.47 31.398 137.011 31.685 138.485C32.259 141.366 33.1518 143.007 33.1518 141.131C33.1518 140.595 32.9605 139.322 32.7054 138.317C32.4503 137.313 32.2909 136.442 32.3546 136.375C32.6097 136.107 33.4707 137.915 33.7577 139.322C34.3636 142.035 34.1404 149.371 33.4707 149.371C32.8648 149.371 29.7398 141.131 28.6556 136.71C28.3048 135.169 28.3048 134.867 28.6875 134.633C29.4847 134.097 30.25 134.264 30.7283 135.035ZM33.3113 284.192C33.3113 288.111 32.8648 290.155 31.4618 292.633C30.3776 294.61 30.4095 293.136 31.5574 289.585C32.6735 286.135 32.6735 286.035 32.0357 286.035C31.398 286.035 31.0791 286.805 30.2819 290.054C29.9311 291.628 29.4847 293.236 29.3253 293.638C28.9745 294.509 27.7946 294.677 27.5076 293.906C27.1888 292.968 30.5051 282.786 31.9082 280.374C32.546 279.268 32.6097 279.235 32.9605 279.871C33.1518 280.24 33.3113 282.015 33.3113 284.192ZM34.6825 320.87C35.384 322.009 35.6072 323.215 35.097 323.215C34.9376 323.215 34.0447 322.579 33.1199 321.808L31.4299 320.401L32.3546 320C33.5983 319.43 33.7896 319.531 34.6825 320.87ZM32.9286 323.081C33.9171 323.919 34.7462 324.722 34.7462 324.823C34.7462 324.957 34.236 325.794 33.6301 326.699C33.0243 327.603 32.6097 328.474 32.7054 328.608C33.1837 329.445 34.523 328.34 35.5115 326.297L36.0536 325.225L37.2016 325.727C37.8394 326.029 38.4452 326.33 38.5409 326.397C38.6366 326.498 38.509 327.369 38.2858 328.34C37.1059 333.197 34.7781 335.039 32.0039 333.23C30.2181 332.092 29.4847 330.45 29.4847 327.737C29.5166 325.493 30.3776 321.54 30.8559 321.54C30.9834 321.54 31.9082 322.244 32.9286 323.081ZM51.902 326.196C52.6035 328.005 53.0181 329.948 53.5921 334.403C54.0704 337.92 53.6877 342.04 52.6354 345.021C51.328 348.672 48.3943 351.151 44.9185 351.586C43.2922 351.787 43.2922 351.787 43.5154 350.983C43.643 350.548 44.5996 348.438 45.6519 346.327C48.0117 341.403 49.1277 337.116 49.1915 332.427C49.2234 330.584 49.1277 328.307 49.0002 327.335C48.7451 325.66 48.7451 325.593 49.638 325.091C50.9772 324.32 51.2005 324.421 51.902 326.196ZM47.8522 327.235C47.9798 327.704 48.0754 329.579 48.1073 331.455C48.1392 335.575 47.7247 337.116 45.2693 342.308C44.2808 344.418 43.1328 347.198 42.7182 348.505C42.3356 349.777 41.8892 350.983 41.7616 351.117C41.5065 351.419 39.0511 350.414 37.7118 349.476C37.1059 349.074 37.0422 348.873 37.3292 348.069C37.5205 347.567 38.0307 346.763 38.4771 346.26C38.9236 345.791 39.2106 345.255 39.1149 345.088C39.0192 344.921 39.2106 344.519 39.5294 344.217C39.8802 343.916 40.0715 343.447 39.9759 343.145C39.8483 342.877 40.0078 342.576 40.2948 342.442C40.5817 342.341 40.805 341.906 40.805 341.47C40.805 341.035 41.0282 340.633 41.2833 340.499C41.5384 340.399 41.7616 340.097 41.7616 339.796C41.7616 339.327 42.0167 338.657 42.782 337.283C43.4198 336.078 43.7705 335.073 43.7068 334.57C43.6749 334.269 43.8662 333.934 44.1213 333.833C44.5359 333.666 44.5678 333.431 44.3126 332.728C44.0575 332.058 44.0894 331.656 44.4402 331.087C44.791 330.551 44.8547 329.814 44.7272 328.474C44.5359 326.431 44.7272 326.23 46.7043 326.33C47.4058 326.397 47.6928 326.598 47.8522 327.235ZM40.9006 352.491C41.3789 352.658 41.4427 353.127 41.4427 356.008C41.4427 358.821 41.5703 359.759 42.3675 362.07C43.2603 364.717 43.2603 364.75 42.5907 364.549C38.3177 363.243 36.3406 359.96 36.3406 354.165C36.3406 350.213 36.3406 350.213 38.509 351.352C39.4976 351.888 40.5817 352.424 40.9006 352.491Z" fill="#7C8EBE"/>
<path d="M317.147 58.262C315.297 58.6305 314.596 59.6689 314.851 61.7456C315.042 63.4539 315.488 64.2913 316.222 64.2913C316.987 64.2913 317.051 63.3534 316.318 62.2815C315.457 61.0087 315.648 59.7024 316.796 59.4009C318.645 58.9319 324.513 61.0757 325.374 62.583C325.501 62.7505 325.119 63.1859 324.545 63.4874C322.344 64.6598 321.292 66.1671 320.782 68.9137C320.399 71.1245 320.909 73.3352 322.089 74.5411L323.014 75.479V74.6416C322.982 74.2061 322.791 73.4692 322.536 73.0003C321.962 71.9284 321.93 69.6172 322.504 68.1768C323.174 66.502 325.182 64.2913 326.043 64.2913C327.032 64.2913 327.351 64.7602 328.467 68.0094C329.392 70.5885 329.455 71.0575 329.264 73.6367C329.137 75.1775 328.977 76.5508 328.881 76.7183C328.786 76.8858 328.052 77.0198 327.223 77.0198C325.182 77.0198 322.918 78.1921 320.559 80.5034C318.199 82.7811 317.179 84.8243 316.445 88.7099C315.488 93.8682 316.732 100.099 319.73 104.922L320.304 105.86L318.964 107.032C318.231 107.669 316.892 109.243 316.031 110.516C314.5 112.693 314.404 112.994 314.404 114.837C314.404 116.646 314.5 116.913 315.393 117.684C316.987 119.124 319.188 119.258 319.634 117.985C319.953 117.148 319.443 116.846 318.358 117.282C317.561 117.583 317.242 117.55 316.541 117.047C315.361 116.244 315.201 115.205 315.903 113.463C316.605 111.822 319.506 108.037 320.495 107.501C321.069 107.166 321.356 107.367 323.078 109.31C324.8 111.32 326.203 112.124 326.203 111.152C326.203 110.951 325.342 109.846 324.258 108.673L322.344 106.563L323.078 106.027C324.13 105.223 324.449 105.357 325.055 106.764C325.82 108.506 327.447 110.348 327.893 109.879C328.116 109.645 327.861 108.908 327.032 107.501C325.693 105.257 325.725 104.386 327.064 104.553C327.797 104.654 328.052 104.955 328.658 106.63C329.36 108.573 330.189 109.846 330.731 109.846C331.241 109.846 330.986 108.472 330.157 106.798C329.2 104.821 329.328 104.051 330.572 104.219C331.337 104.319 331.528 104.62 332.293 106.932C333.314 109.946 333.984 111.186 334.653 111.186C335.323 111.186 335.259 110.415 334.494 108.841C333.824 107.501 333.282 104.486 333.665 104.486C333.792 104.486 334.366 104.687 334.94 104.955C335.897 105.357 336.024 105.592 336.216 107.099C336.566 109.946 338.894 111.454 340.68 110.013C341.031 109.745 341.413 109.511 341.573 109.511C341.956 109.511 343.933 114.167 345.017 117.717C345.91 120.632 346.069 121.67 346.229 125.656C346.452 132.69 346.069 134.13 344.06 133.46C343.454 133.26 343.422 132.958 343.422 129.106C343.422 125.857 343.295 124.517 342.753 122.708C341.828 119.526 340.457 116.813 339.054 115.339C335.801 111.889 328.913 110.683 326.235 113.061C324.513 114.569 324.577 117.885 326.299 117.885C327.064 117.885 328.116 116.947 328.116 116.277C328.116 116.076 327.765 115.641 327.319 115.339C326.33 114.669 326.33 114.334 327.255 113.832C329.168 112.726 332.708 112.894 335.259 114.2C339.436 116.311 342.434 122.407 342.466 128.805C342.466 132.456 342.179 133.762 340.967 135.169C339.468 136.944 338.767 138.451 338.32 140.93C337.842 143.476 338.033 145.787 338.99 148.768L339.723 151.012L338.862 152.285C337.842 153.86 337.81 154.061 338.607 154.061C338.958 154.061 339.5 153.625 339.819 153.056C340.106 152.486 340.457 152.051 340.553 152.051C340.839 152.051 342.593 154.027 342.434 154.161C342.37 154.194 341.637 154.563 340.839 154.965C339.118 155.802 338.32 157.243 338.32 159.52C338.32 162.301 339.277 163.774 341.063 163.774C342.211 163.774 343.422 162.836 343.422 161.932C343.422 161.296 343.135 161.296 341.86 161.966C340.935 162.435 340.776 162.435 340.074 161.966C338.448 160.86 339.341 157.075 341.477 155.903C342.817 155.199 345.718 155.266 347.185 156.037C347.823 156.405 348.78 157.142 349.322 157.712L350.246 158.783L349.385 159.621C348.907 160.056 348.429 160.86 348.333 161.329C348.046 162.468 348.78 163.908 349.736 164.042C350.565 164.176 350.597 164.009 349.896 162.769C349.417 161.865 349.417 161.765 349.928 160.961C350.693 159.688 351.331 159.889 351.713 161.497C351.905 162.301 352.224 163.54 352.415 164.277C352.925 166.153 352.893 171.713 352.383 182.867C351.968 192.48 352.032 196.5 352.67 201.457C353.658 208.726 354.296 210.736 356.305 213.214L357.389 214.554L356.273 215.492C354.775 216.765 353.467 219.847 352.798 223.565C352.064 227.953 351.873 238.236 352.351 248.988C352.798 259.07 352.606 263.291 351.458 266.473C350.884 268.181 350.278 268.516 349.672 267.511C349.417 267.076 349.449 266.707 349.896 265.904C350.47 264.798 350.374 264.162 349.672 264.463C349.162 264.664 348.525 266.038 348.525 266.908C348.525 267.243 348.812 267.913 349.162 268.382C350.119 269.622 349.959 270.425 348.556 271.598C345.081 274.479 341.605 274.244 339.819 271.028C339.277 270.057 339.245 269.722 339.564 268.65C339.755 267.947 340.202 267.109 340.553 266.774C341.19 266.172 341.222 266.172 342.083 267.042C343.04 268.014 344.06 268.248 344.06 267.511C344.06 266.975 342.88 265.803 342.051 265.502C341.286 265.2 339.405 266.038 338.99 266.875C338.352 268.148 338.575 270.693 339.436 272.033C340.266 273.306 342.019 274.646 342.912 274.646C343.614 274.646 343.55 274.88 342.561 275.818C341.413 276.89 341.158 276.857 340.393 275.651C340.042 275.115 339.564 274.646 339.373 274.646C338.767 274.646 338.862 275.617 339.596 276.555C340.425 277.661 340.393 277.828 339.405 281.211C338.703 283.522 338.575 284.494 338.703 286.336C338.926 289.485 340.297 292.533 342.274 294.208L343.741 295.48V299.399C343.741 301.543 343.518 304.323 343.263 305.63C341.892 312.396 337.683 316.516 331.943 316.65C329.806 316.683 327.861 315.913 327.542 314.875C327.447 314.607 327.542 314.506 327.765 314.64C328.403 315.076 329.392 314.506 329.392 313.702C329.392 312.731 328.818 312.161 327.797 312.161C325.884 312.161 325.565 314.573 327.255 316.348C329.87 319.095 336.726 317.889 340.393 314.004C343.295 310.956 344.634 306.802 344.921 300.036C345.081 295.849 345.176 295.413 345.718 295.213C346.739 294.878 346.994 295.514 347.345 299.333C347.919 306.132 346.803 312.496 344.188 317.454L343.072 319.531L342.147 319.028C339.692 317.688 337.683 319.33 337.683 322.679C337.683 324.019 337.587 324.187 336.694 324.521C336.12 324.722 335.546 324.89 335.355 324.89C335.068 324.89 335.163 323.182 335.642 320.134C335.769 319.296 335.737 318.861 335.514 318.861C334.94 318.861 334.398 320.2 333.856 322.88C333.346 325.526 333.059 325.828 331.433 325.426C330.795 325.258 330.699 325.091 330.89 324.12C330.986 323.55 331.337 322.311 331.656 321.373C332.007 320.401 332.134 319.598 331.975 319.43C331.433 318.861 331.05 319.531 330.316 322.378L329.551 325.258L328.435 325.158C327.415 325.057 327.319 324.99 327.351 324.019C327.383 323.416 327.765 322.411 328.212 321.708C328.977 320.502 329.041 319.363 328.339 319.631C328.148 319.698 327.51 320.736 326.904 321.976C325.756 324.32 325.246 324.622 324.13 323.751C323.524 323.282 323.556 323.182 325.023 321.239C325.852 320.1 326.522 318.961 326.522 318.693C326.522 317.789 325.629 318.157 324.736 319.43C324.258 320.134 323.524 321.205 323.078 321.808L322.344 322.88L321.388 322.311C319.698 321.272 317.657 318.727 317.274 317.152C316.668 314.841 317.147 313.468 318.805 312.664C320.591 311.793 320.622 310.989 318.837 311.257C316.668 311.559 316.158 312.396 316.158 315.444C316.19 318.693 317.051 320.435 319.634 322.512C320.622 323.282 321.42 323.986 321.42 324.086C321.42 324.187 320.846 325.493 320.176 327C319.474 328.507 318.741 330.651 318.518 331.757C318.008 334.336 318.008 339.293 318.518 341.638C319.953 348.036 324.417 352.692 329.168 352.692C331.337 352.692 331.464 352.893 331.433 356.51C331.369 359.793 330.476 363.611 329.551 364.415C328.85 365.052 327.064 364.248 325.756 362.74C324.29 361.032 323.747 359.156 324.226 357.415C324.991 354.802 324.481 353.328 323.524 355.304C322.376 357.649 322.631 360.965 324.162 363.142C325.023 364.348 327 365.755 327.893 365.755C328.881 365.755 328.467 366.358 326.522 367.698C324.034 369.473 322.727 369.875 320.399 369.708C318.103 369.54 317.434 368.904 317.753 367.162C317.976 365.822 317.721 365.219 317.083 365.789C316.828 366.023 316.636 366.793 316.636 367.731C316.636 369.071 316.796 369.473 317.625 370.31C318.518 371.181 318.773 371.282 320.654 371.215C323.779 371.114 325.565 370.344 327.957 368.066C329.105 366.994 330.221 366.09 330.444 366.09C330.699 366.09 331.624 365.855 332.549 365.554C334.621 364.918 336.79 362.908 337.906 360.597C338.862 358.587 339.277 353.395 338.671 350.849C338.32 349.342 338.32 349.208 339.341 347.567C340.234 346.126 340.393 345.49 340.489 343.48C340.616 340.7 340.234 338.489 339.596 338.355C339.213 338.288 339.118 338.891 339.118 341.705C339.118 344.351 338.99 345.456 338.544 346.495L337.938 347.835L337.459 346.662C337.204 346.026 336.758 345.021 336.503 344.418C336.248 343.849 336.12 343.212 336.248 343.011C336.343 342.81 336.216 342.542 335.961 342.442C335.674 342.341 335.45 341.872 335.45 341.437C335.45 340.968 335.227 340.533 334.94 340.399C334.685 340.298 334.526 339.997 334.653 339.695C334.749 339.427 334.653 338.992 334.43 338.69C334.207 338.422 334.015 338.02 334.015 337.819C333.984 337.183 332.198 333.599 331.911 333.599C331.751 333.599 331.72 333.364 331.847 333.096C331.943 332.795 331.783 332.293 331.528 331.991C331.241 331.69 331.018 330.953 330.986 330.417C330.954 329.847 330.922 328.809 330.89 328.072L330.827 326.732L332.134 326.632L333.441 326.531L333.952 328.775C334.908 332.761 337.332 335.073 340.584 335.106C342.848 335.106 343.901 334.403 345.017 332.092C346.133 329.713 346.101 325.627 344.921 322.579L344.092 320.468L345.814 317.822C347.823 314.774 348.684 312.094 349.194 307.64C349.545 304.457 349.226 298.964 348.525 296.385C348.078 294.744 348.11 294.61 349.29 293.102C350.565 291.528 350.948 289.719 350.438 287.743C350.119 286.437 349.003 285.231 348.461 285.566C348.333 285.666 348.493 286.336 348.843 287.039C349.194 287.776 349.481 288.915 349.481 289.619C349.481 290.858 348.493 293.069 347.951 293.069C347.791 293.069 347.472 292.198 347.281 291.126C346.739 288.647 345.112 284.226 343.454 280.776C342.753 279.235 342.147 277.929 342.147 277.828C342.147 277.728 342.753 277.225 343.486 276.656C346.675 274.244 349.832 276.187 348.525 279.804C348.078 281.111 348.716 281.211 349.832 280.005C350.725 279.101 350.82 278.799 350.661 277.627C350.438 275.885 349.417 274.746 347.759 274.378L346.452 274.077L347.6 273.541C348.238 273.239 349.385 272.234 350.119 271.296C350.884 270.325 351.65 269.655 351.905 269.756C352.542 270.024 356.082 268.014 356.815 266.975C358.282 264.798 358.761 262.152 358.761 256.156C358.761 250.562 358.346 246.978 357.134 241.485C356.178 237.13 355.093 230.431 355.349 230.197C355.412 230.096 355.699 230.833 355.986 231.838C356.241 232.81 356.879 234.283 357.358 235.121C357.868 235.958 358.442 237.03 358.633 237.532C358.952 238.236 359.271 238.47 359.94 238.47C361.12 238.47 361.503 238.001 361.344 236.796C361.216 235.925 361.057 235.757 359.94 235.59C358.792 235.389 358.601 235.188 357.74 233.345C356.433 230.632 355.763 227.149 355.986 224.335C356.337 220.416 356.752 220.249 356.688 224.067C356.656 227.048 356.752 227.752 357.326 228.757C358.218 230.364 359.398 230.766 360.578 229.862C361.822 228.89 362.173 227.182 361.407 225.541C361.088 224.804 360.546 224.201 360.259 224.134C359.749 224.034 359.749 224.101 360.164 225.206C360.419 225.842 360.642 227.015 360.642 227.752C360.642 229.292 360.1 229.728 358.888 229.158C357.326 228.422 356.975 223.766 358.155 219.344C358.505 217.87 358.729 216.597 358.601 216.43C357.931 215.727 355.508 220.65 354.902 224C354.296 227.216 354.679 234.283 355.827 241.317C357.262 250.026 357.644 254.749 357.198 258.869C356.784 262.487 356.146 264.899 355.157 266.372C354.519 267.31 352.128 268.818 351.809 268.483C351.713 268.382 352 267.411 352.479 266.305C354.392 261.817 355.03 251.735 353.977 242.322C352.925 233.144 352.829 229.46 353.435 225.742C354.615 218.607 356.21 215.559 358.601 215.76C361.025 215.961 361.822 219.277 359.558 219.713C358.697 219.88 358.665 219.914 359.175 220.349C359.59 220.717 359.877 220.717 360.483 220.45C362.173 219.646 362.332 216.865 360.801 215.358C360.036 214.588 360.036 214.554 360.642 214.119C360.993 213.851 361.439 213.08 361.631 212.343C362.268 210.066 361.088 208.257 359.335 208.826C358.537 209.094 358.697 209.831 359.59 209.865C361.088 209.965 361.375 211.004 360.291 212.477C358.346 215.057 355.38 211.707 354.073 205.477C353.371 202.027 353.371 191.476 354.073 184.542C355.03 175.364 354.488 165.684 352.829 161.832C352.096 160.123 352.096 160.09 352.702 160.09C354.041 160.09 355.699 162.702 356.656 166.287C357.358 169.033 357.613 175.967 357.166 179.685C356.943 181.326 356.273 185.413 355.636 188.729C354.296 195.696 354.105 200.486 355.03 205.142C355.731 208.625 357.358 212.143 358.346 212.276C359.175 212.41 359.239 212.109 358.569 211.104C357.963 210.233 357.326 204.103 357.613 202.127C357.868 200.318 358.665 199.146 359.43 199.448C360.227 199.783 360.451 200.888 360.004 202.328C359.526 203.802 359.781 204.405 360.483 203.434C361.12 202.529 361.375 200.586 360.993 199.515C360.355 197.806 358.059 197.974 356.911 199.849C356.465 200.586 356.337 201.357 356.401 203.802C356.433 205.711 356.337 206.582 356.178 206.147C355.636 204.807 355.827 200.184 356.497 198.074C357.517 194.926 358.442 193.418 359.462 193.318C361.12 193.117 361.917 190.806 360.451 190.437C359.239 190.102 358.442 190.504 358.187 191.509C358.091 191.978 357.358 193.753 356.592 195.428C355.38 198.074 355.221 198.275 355.38 197.103C355.891 192.346 356.369 189.399 357.358 184.374C360.196 169.804 358.346 159.654 352.67 158.85C351.65 158.683 351.267 158.448 350.725 157.544C350.374 156.908 349.417 156.003 348.652 155.534L347.217 154.63L348.142 154.061C350.023 152.855 350.565 151.213 349.672 149.405C349.067 148.199 348.429 147.663 347.951 147.998C347.6 148.199 347.632 148.5 348.078 149.438C349.513 152.654 346.197 154.73 343.072 152.587C342.37 152.084 341.732 151.481 341.637 151.213C341.541 150.979 341.987 149.572 342.657 148.132C343.295 146.691 344.539 143.208 345.399 140.394C346.292 137.614 347.121 135.303 347.249 135.303C347.408 135.303 347.823 135.805 348.174 136.442C349.098 138.016 349.067 140.026 348.046 141.6C347.058 143.141 347.058 143.342 348.046 143.342C348.939 143.342 349.385 142.638 349.768 140.495C350.151 138.317 349.641 136.308 348.301 134.666L347.185 133.293L347.536 131.149C348.046 128.135 347.982 122.608 347.377 119.66C346.739 116.344 345.942 114.301 343.996 110.918L342.434 108.171L343.135 106.228C344.794 101.706 343.582 96.2465 340.553 94.6052C339.373 93.9687 336.949 93.9687 335.833 94.5717C333.697 95.744 332.198 98.1892 331.783 101.237C331.592 102.51 331.401 102.845 330.827 103.013C330.412 103.113 329.774 103.046 329.424 102.812C328.85 102.51 328.754 102.142 328.754 100.166C328.754 98.6247 328.913 97.7538 329.2 97.4858C329.455 97.2848 329.711 96.6484 329.806 96.1125C330.125 94.4042 330.189 94.2032 330.635 93.6338C330.859 93.3658 330.954 92.8299 330.859 92.4949C330.699 92.026 330.827 91.7915 331.305 91.6575C331.688 91.557 331.943 91.2221 331.943 90.8201C331.943 90.4182 332.102 90.0162 332.262 89.9157C332.453 89.8152 332.58 89.5138 332.58 89.2458C332.58 88.9778 332.995 88.1404 333.505 87.3365C334.015 86.5326 334.526 85.2933 334.685 84.5564C334.813 83.8195 335.1 82.9486 335.323 82.5801C335.706 82.0107 335.737 82.0442 336.248 83.0155C336.535 83.585 336.822 85.0253 336.949 86.2312C337.109 88.1404 337.045 88.5089 336.28 89.8822C335.259 91.7245 335.227 92.1599 336.152 92.026C336.694 91.959 337.077 91.4565 337.619 90.0832C338.607 87.5375 338.448 85.1258 337.109 82.3121C336.056 80.1684 336.056 80.1684 336.439 77.6897C336.885 74.6751 336.662 70.756 335.897 68.4783C334.813 65.2627 331.305 62.6165 328.116 62.6165C327.574 62.6165 326.904 62.1811 326.171 61.4107C324.768 59.8698 322.663 58.7645 320.304 58.2955C319.283 58.0945 318.422 57.9606 318.422 57.9606C318.39 57.9941 317.816 58.128 317.147 58.262ZM331.146 65.0952C333.888 66.8035 335.227 70.1866 335.227 75.278C335.227 77.1538 335.132 78.7951 335.036 78.929C334.908 79.0295 333.856 78.6611 332.676 78.1251L330.508 77.0868L330.635 74.1056C330.731 70.8565 330.221 67.9759 329.073 65.6311L328.435 64.2913H329.105C329.487 64.2913 330.412 64.6598 331.146 65.0952ZM326.394 83.0155C325.246 85.5947 324.003 88.9443 323.62 90.4851C322.6 94.5382 322.695 99.5626 323.843 103.549C323.971 103.984 323.684 104.252 322.791 104.654C321.643 105.156 321.579 105.156 321.037 104.419C318.964 101.539 317.753 93.0978 318.677 87.973C319.57 83.0825 321.579 80.3024 325.246 78.929C326.586 78.4266 328.148 78.0916 328.371 78.2256C328.435 78.2591 327.542 80.4029 326.394 83.0155ZM332.549 79.465C333.505 80.0679 334.334 80.7043 334.398 80.9053C334.462 81.1063 333.92 82.1781 333.218 83.317C332.517 84.4894 331.943 85.5947 331.911 85.8292C331.911 86.0637 331.624 86.6666 331.273 87.236C330.954 87.772 330.54 88.5759 330.38 88.9778C330.221 89.3463 329.902 89.7817 329.742 89.9157C329.551 90.0162 329.392 90.3847 329.392 90.7196C329.392 91.0546 329.2 91.5235 328.945 91.758C328.69 91.959 328.563 92.3609 328.658 92.5954C328.754 92.8634 328.594 93.3323 328.307 93.6003C327.957 94.0022 327.797 94.7726 327.797 96.2465C327.797 97.3853 327.638 98.4907 327.447 98.6917C327.191 98.9596 327.191 99.5291 327.447 100.835C327.638 101.807 327.702 102.711 327.542 102.879C327 103.448 325.278 103.783 324.991 103.381C324.832 103.147 324.513 101.472 324.29 99.6296C323.779 95.4091 324.003 94.2702 326.458 88.1739C327.51 85.6282 328.658 82.4796 329.073 81.2068C329.455 79.9004 329.87 78.7616 329.934 78.5941C330.189 78.1586 330.795 78.3596 332.549 79.465ZM339.915 95.945C341.158 96.6149 342.115 98.1557 342.402 99.864C342.657 101.371 342.338 104.955 341.828 106.362L341.509 107.2L339.596 105.826C338.544 105.089 337.683 104.386 337.683 104.286C337.683 104.185 338.033 103.549 338.48 102.879C338.926 102.209 339.277 101.472 339.277 101.237C339.277 100.299 338.257 100.869 337.268 102.343C336.311 103.783 336.184 103.85 335.132 103.649C334.526 103.515 333.888 103.314 333.76 103.147C333.441 102.845 334.015 99.5291 334.653 97.8878C335.482 95.811 337.97 94.9066 339.915 95.945ZM338.926 107.099C340.329 108.372 340.489 109.176 339.309 109.176C338.384 109.176 337.651 108.372 337.396 107.066C337.236 106.396 337.204 105.826 337.332 105.826C337.427 105.826 338.161 106.396 338.926 107.099ZM345.144 134.499C345.431 134.599 345.655 134.968 345.655 135.269C345.655 137.145 341.222 149.371 340.553 149.371C339.883 149.371 339.66 142.035 340.266 139.322C340.553 137.915 341.413 136.107 341.669 136.375C341.732 136.442 341.573 137.313 341.318 138.317C341.063 139.322 340.871 140.595 340.871 141.131C340.871 143.007 341.764 141.366 342.338 138.485C343.04 134.733 343.646 133.896 345.144 134.499ZM342.944 282.149C344.379 285.365 346.739 293.236 346.516 293.873C346.229 294.677 345.049 294.509 344.698 293.638C344.539 293.236 344.092 291.628 343.741 290.054C342.944 286.805 342.625 286.035 341.987 286.035C341.35 286.035 341.35 286.135 342.466 289.585C343.614 293.136 343.646 294.61 342.561 292.633C341.19 290.255 340.712 288.078 340.712 284.527C340.712 280.876 340.999 279.168 341.573 279.536C341.764 279.67 342.37 280.843 342.944 282.149ZM342.115 320.2C342.434 320.368 342.115 320.803 340.871 321.842C339.979 322.579 339.086 323.215 338.926 323.215C338.257 323.215 338.799 321.373 339.851 320.1C340.329 319.531 340.999 319.564 342.115 320.2ZM343.965 323.45C344.252 324.521 344.507 326.431 344.539 327.737C344.539 330.45 343.805 332.092 342.019 333.23C339.245 335.039 336.917 333.197 335.737 328.307C335.291 326.364 335.387 326.196 336.981 325.627C337.938 325.292 338.033 325.325 338.512 326.33C339.5 328.34 340.839 329.445 341.318 328.608C341.413 328.474 340.999 327.603 340.393 326.699C339.787 325.794 339.277 324.957 339.277 324.823C339.277 324.555 342.848 321.54 343.167 321.54C343.295 321.54 343.646 322.411 343.965 323.45ZM324.353 325.091C325.246 325.56 325.31 325.727 325.119 326.833C324.034 333.465 325.214 340.231 328.722 347.098C329.583 348.773 330.38 350.548 330.508 350.983C330.731 351.787 330.731 351.787 329.105 351.586C325.629 351.151 322.695 348.672 321.388 345.021C319.953 340.968 319.857 336.513 321.133 329.646C321.547 327.503 322.663 324.555 323.078 324.555C323.237 324.555 323.811 324.789 324.353 325.091ZM328.722 326.464C329.424 326.665 329.455 326.766 329.296 328.507C329.168 329.814 329.232 330.551 329.583 331.087C329.934 331.656 329.966 332.058 329.711 332.728C329.455 333.431 329.487 333.666 329.902 333.833C330.157 333.934 330.348 334.269 330.316 334.57C330.253 335.073 330.603 336.078 331.241 337.283C332.007 338.657 332.262 339.327 332.262 339.796C332.262 340.097 332.485 340.399 332.74 340.499C332.995 340.633 333.218 341.035 333.218 341.47C333.218 341.906 333.441 342.341 333.728 342.442C334.015 342.576 334.175 342.877 334.047 343.145C333.952 343.447 334.143 343.916 334.494 344.217C334.813 344.519 335.004 344.921 334.908 345.088C334.813 345.255 335.1 345.791 335.546 346.26C335.993 346.763 336.503 347.567 336.694 348.069C336.981 348.873 336.917 349.074 336.311 349.476C334.972 350.414 332.517 351.419 332.262 351.117C332.134 350.983 331.688 349.777 331.305 348.505C330.89 347.198 329.742 344.418 328.722 342.274C326.171 336.848 325.788 335.341 325.948 330.785C326.012 328.742 326.171 326.866 326.299 326.632C326.586 326.196 327.51 326.129 328.722 326.464ZM337.651 354.232C337.714 359.893 335.674 363.243 331.433 364.549C330.763 364.75 330.763 364.717 331.656 362.07C332.453 359.759 332.58 358.821 332.58 356.008C332.58 353.127 332.644 352.658 333.154 352.491C333.441 352.424 334.494 351.921 335.45 351.385C337.587 350.246 337.619 350.313 337.651 354.232Z" fill="#7C8EBE"/>
<path d="M6.01512 202.161C0.626037 203.869 -1.76557 213.683 1.45513 221.019C2.41177 223.297 4.22939 225.306 5.63246 225.708C6.8761 226.077 8.7256 225.675 9.84168 224.804C12.042 223.096 11.7869 220.148 9.33147 219.511C7.70518 219.076 5.98323 221.588 7.03554 222.928C7.57763 223.598 8.27917 223.498 8.27917 222.761C8.27917 221.689 8.62994 221.052 9.23581 221.052C10.6389 221.052 10.4157 222.928 8.88504 223.866C6.23833 225.507 3.97428 224.234 2.82631 220.382C1.48701 215.894 1.77401 209.865 3.52785 206.08C4.96281 202.964 8.15162 201.792 9.74602 203.735C10.607 204.807 10.7345 206.348 10.033 206.984C9.23581 207.687 8.53427 207.118 8.66183 205.912C8.7256 205.008 8.66183 204.807 8.11973 204.807C7.16309 204.807 6.46155 206.381 6.93987 207.453C7.80085 209.463 10.607 209.161 11.468 206.984C11.8187 206.08 11.8187 205.678 11.4361 204.539C10.6708 202.194 8.66183 201.323 6.01512 202.161Z" fill="#7C8EBE"/>
<path d="M365.106 201.96C362.045 202.697 361.312 207.42 364.086 208.625C366.031 209.496 367.976 207.52 366.988 205.711C366.733 205.209 366.222 204.807 365.904 204.807C365.361 204.807 365.298 205.008 365.361 205.912C365.489 207.118 364.787 207.688 363.99 206.984C363.289 206.348 363.416 204.807 364.277 203.735C365.872 201.792 369.06 202.965 370.495 206.08C373.302 212.142 372.058 222.962 368.391 224.435C367.37 224.837 365.489 224.335 364.5 223.364C363.671 222.56 363.703 221.287 364.596 221.119C365.298 220.952 365.744 221.555 365.744 222.627C365.744 223.498 366.446 223.632 366.988 222.928C368.04 221.588 366.318 219.076 364.692 219.512C361.312 220.382 362.396 224.837 366.191 225.742C367.849 226.11 369.22 225.641 370.591 224.168C375.055 219.344 375.151 208.525 370.782 203.969C369.188 202.261 367.02 201.524 365.106 201.96Z" fill="#7C8EBE"/>
<path d="M38.4771 366.86C36.7552 367.296 36.2131 368.535 36.4044 371.583C36.5957 374.33 37.4248 376.44 39.1787 378.55C40.0715 379.622 40.4861 380.493 40.7412 382C41.921 388.13 47.055 390.843 55.1227 389.504C57.2592 389.169 57.3549 389.202 59.1725 390.207C61.7873 391.614 63.7644 391.815 66.4111 390.91C68.4519 390.174 69.2172 389.437 68.5476 388.733C68.2925 388.465 67.7504 388.633 66.6662 389.303C65.7414 389.839 64.6253 390.207 63.9238 390.207C62.3613 390.207 60.0335 389.571 59.587 389.001C59.3 388.633 59.4595 388.432 60.3523 388.03C60.9901 387.762 61.7873 387.527 62.1062 387.527C62.4569 387.527 63.3179 387.058 64.0195 386.522C64.7529 385.953 65.5501 385.518 65.8052 385.518C66.0603 385.518 66.3792 385.35 66.4748 385.183C66.5705 384.982 66.9532 384.848 67.3358 384.848C67.6866 384.848 68.0374 384.58 68.133 384.178C68.2606 383.675 68.4838 383.575 68.994 383.709C69.4404 383.809 69.855 383.675 70.1101 383.374C70.3333 383.106 71.1305 382.771 71.8958 382.637C72.693 382.536 73.4902 382.235 73.6815 381.967C73.9366 381.666 74.7338 381.498 76.2007 381.498C78.5923 381.498 79.1982 381.9 79.0068 383.374C78.9112 384.178 78.688 384.312 76.5196 384.881C73.841 385.618 72.2785 386.723 71.1943 388.733C68.8983 392.954 72.3741 397.409 77.9227 397.375C79.4533 397.342 80.7607 397.107 82.0362 396.605L83.8538 395.834L86.3411 397.375C89.785 399.485 92.0172 400.457 94.7914 401.06C97.6614 401.696 102.763 401.763 105.92 401.194C107.929 400.859 108.184 400.892 108.471 401.361C108.631 401.663 109.364 402.299 110.13 402.768C111.82 403.806 114.658 403.907 116.348 403.002C117.559 402.366 117.783 401.998 117.368 401.294C117.145 400.926 116.858 401.026 115.869 401.73C114.116 402.969 111.979 402.935 110.576 401.629L109.556 400.691L114.498 399.016C117.209 398.079 120.621 396.772 122.088 396.035L124.766 394.762L125.818 396.035C127.636 398.246 127.54 400.758 125.563 401.897C124.702 402.433 124.607 402.4 122.375 401.428C121.45 401.026 121.673 402.433 122.598 403.069C124.543 404.409 126.297 404.007 127.509 401.897L128.083 400.892L129.007 402.433C129.518 403.27 130.378 404.242 130.921 404.577C131.686 405.046 131.973 405.515 132.1 406.52C132.419 408.496 133.535 410.003 135.512 411.041C140.041 413.42 146.992 413.587 156.559 411.51C161.055 410.539 168.485 409.266 169.569 409.3C169.952 409.333 164.084 412.18 163.191 412.415C162.203 412.683 161.916 413.319 162.203 414.659C162.394 415.764 162.777 415.865 164.052 415.262C164.626 414.994 164.849 414.626 164.849 413.956C164.849 413.185 165.136 412.85 166.221 412.147C168.708 410.64 171.1 409.97 173.906 410.003C175.341 410.037 176.839 410.171 177.286 410.305C177.796 410.472 176.935 410.539 175.022 410.539C172.598 410.472 171.801 410.606 171.1 411.075C169.346 412.314 169.186 414.693 170.844 415.362C171.833 415.764 173.619 415.496 174.671 414.76C175.787 414.023 175.309 413.855 173.459 414.358C171.929 414.76 171.801 414.76 171.131 414.023L170.43 413.286L171.163 412.649C171.578 412.314 172.503 411.912 173.268 411.812C175.245 411.477 181.017 412.147 181.941 412.817C182.994 413.554 183.408 413.353 182.93 412.348C182.165 410.707 178.338 409.266 172.981 408.596C169.473 408.127 167.337 408.328 161.31 409.601C149.83 412.046 144.058 412.281 138.255 410.506C135.481 409.635 133.28 407.759 133.28 406.252C133.28 406.084 133.822 406.218 134.492 406.587C137.904 408.395 147.502 409.099 156.399 408.127C163.67 407.357 173.108 407.323 176.425 408.094C179.55 408.797 181.336 409.635 182.834 411.008C183.791 411.879 183.982 412.281 183.919 413.085C183.695 415.262 180.793 416.099 180.793 413.956C180.793 412.716 179.996 412.649 179.677 413.889C179.518 414.626 179.646 414.961 180.315 415.563C181.623 416.769 183.153 416.535 184.875 414.894C185.258 414.525 185.577 414.391 185.577 414.592C185.577 415.195 187.522 416.334 188.479 416.334C189.754 416.334 191.061 415.095 190.934 414.023C190.806 412.984 190.264 412.984 190.041 414.056C189.786 415.162 188.383 415.597 187.362 414.894C186.278 414.123 185.991 412.85 186.629 411.443C187.49 409.601 190.743 408.228 196.738 407.256C199.576 406.788 203.53 406.988 211.565 407.993C220.622 409.099 229.997 408.462 234.461 406.386C235.45 405.917 236.374 405.615 236.47 405.682C236.821 406.051 235.705 408.194 234.716 409.065C233.409 410.204 231.177 410.908 227.286 411.376C223.46 411.812 219.219 411.443 209.748 409.802C202.541 408.563 197.12 408.261 193.804 408.998C191.604 409.467 187.586 411.477 187.171 412.314C186.725 413.185 186.98 413.185 190.009 412.281C191.859 411.745 193.007 411.611 195.016 411.711C198.141 411.879 199.384 412.549 199.225 413.922C199.129 414.726 198.97 414.827 197.79 414.927C196.993 414.994 196.036 414.793 195.462 414.492C194.282 413.855 193.995 413.989 194.473 414.927C194.92 415.798 196.801 416.434 198.013 416.166C200.118 415.697 200.915 413.42 199.512 412.046C198.555 411.108 195.845 410.573 193.23 410.807C191.572 410.941 191.317 410.908 191.954 410.64C194.473 409.501 199.639 410.07 203.115 411.912C204.614 412.716 204.901 413.018 205.22 414.157C205.475 415.128 205.762 415.53 206.336 415.697C207.516 415.999 207.898 415.697 207.898 414.458C207.898 413.453 207.739 413.252 206.336 412.482C205.475 412.046 204.678 411.51 204.582 411.376C204.486 411.209 203.402 410.707 202.158 410.305C200.915 409.869 199.958 409.467 200.054 409.4C200.277 409.132 207.165 410.305 210.29 411.142C215.743 412.616 219.92 413.085 225.915 412.917C231.782 412.75 234.142 412.18 235.545 410.539C236.47 409.501 237.937 406.319 237.746 405.783C237.682 405.548 238.32 404.711 239.212 403.907C240.105 403.136 241.03 401.964 241.317 401.294L241.795 400.088L242.082 401.462C242.433 403.203 243.517 404.275 245.175 404.51C246.292 404.677 246.579 404.577 247.44 403.639C248.587 402.467 248.492 401.797 247.248 402.266C243.804 403.639 241.955 400.323 244.283 396.94C244.825 396.136 245.431 395.6 245.622 395.7C245.845 395.767 247.886 396.739 250.15 397.844C252.446 398.949 255.539 400.189 257.07 400.624C258.632 401.06 259.876 401.529 259.876 401.696C259.876 402.232 257.739 403.27 256.591 403.27C255.922 403.27 254.806 402.969 254.136 402.601C252.86 401.931 252.86 401.931 252.86 402.601C252.86 404.376 257.389 405.146 259.174 403.672C261.311 401.864 261.406 401.83 262.841 402.199C263.575 402.4 265.711 402.734 267.593 402.935C273.907 403.639 279.2 402.467 283.473 399.418L285.992 397.61L288.001 398.481C290.871 399.72 294.761 399.753 297.025 398.581C299.226 397.409 299.895 396.303 299.895 393.925C299.863 392.351 299.704 391.681 299.002 390.575C297.759 388.599 295.941 387.36 293.677 386.891L291.732 386.489L291.828 385.082L291.923 383.675L294.155 383.776C295.59 383.843 296.579 384.077 296.93 384.412C297.249 384.68 297.695 384.848 297.95 384.747C298.205 384.647 298.588 384.781 298.811 385.049C299.162 385.484 301.713 386.857 302.478 386.991C302.701 387.025 303.084 387.226 303.339 387.46C303.594 387.695 304.009 387.795 304.264 387.695C304.551 387.561 304.838 387.728 304.934 387.996C305.061 388.298 305.476 388.532 305.922 388.532C306.337 388.532 306.783 388.767 306.879 389.068C306.974 389.336 307.23 389.47 307.421 389.37C307.612 389.236 308.218 389.37 308.76 389.638C309.334 389.906 310.291 390.374 310.897 390.642L312.013 391.145L310.737 391.781C309.749 392.25 308.728 392.384 306.177 392.384C303.435 392.351 302.925 392.418 302.988 392.853C303.116 393.557 305.189 393.959 307.867 393.825C309.781 393.724 310.387 393.557 311.758 392.619C313.32 391.547 313.448 391.547 314.883 391.915C317.115 392.518 321.866 392.15 323.811 391.245C326.681 389.906 328.754 387.259 329.232 384.245C329.392 383.106 329.87 382.302 331.305 380.627C333.442 378.148 334.175 376.239 334.271 372.99C334.334 371.014 334.239 370.746 333.41 369.808C332.612 368.937 332.23 368.77 330.954 368.77C330.093 368.77 329.328 368.971 329.105 369.205C328.595 369.875 329.009 370.109 330.348 369.908C332.198 369.607 332.899 370.511 332.899 373.191C332.899 375.502 332.325 377.144 330.667 379.656C329.615 381.264 329.073 381.565 329.073 380.56C329.073 380.225 328.658 379.254 328.148 378.416C326.936 376.407 324.864 375.301 322.217 375.335C320.336 375.335 318.231 376.105 318.231 376.809C318.231 377.244 319.634 377.244 321.133 376.742C322.791 376.239 324.577 376.809 326.203 378.349C327.638 379.723 328.403 381.599 327.797 382.335C326.905 383.474 320.75 384.747 318.231 384.312L317.051 384.111L316.7 381.599C315.648 374.497 310.068 370.377 301.49 370.31C297.631 370.31 295.622 370.779 292.178 372.488C290.743 373.191 289.5 373.794 289.436 373.794C289.34 373.794 288.703 372.957 287.969 371.952C287.268 370.947 285.992 369.707 285.163 369.205C283.888 368.435 283.314 368.301 281.177 368.267C278.243 368.267 277.35 368.87 277.287 370.98C277.255 372.622 277.893 372.823 278.371 371.315C279.041 369.105 281.081 368.502 283.632 369.741C284.876 370.344 287.204 372.689 287.905 374.062C288.224 374.732 288.065 374.933 286.024 376.507C283.919 378.115 283.218 379.153 284.27 379.153C284.525 379.153 285.609 378.45 286.694 377.579C288.543 376.038 288.639 376.005 289.085 376.641C289.914 377.847 289.627 378.383 287.491 379.488C286.343 380.091 285.354 380.795 285.259 381.029C285.004 381.733 286.279 381.599 287.331 380.795C287.842 380.426 288.766 380.024 289.372 379.924L290.488 379.723V381.029V382.335L287.778 383.139C285.067 383.91 284.43 384.312 284.972 384.881C285.131 385.049 285.896 384.915 286.821 384.546C287.714 384.178 288.926 383.843 289.532 383.776C290.648 383.675 290.648 383.675 290.648 385.015V386.355L288.256 386.857C285.705 387.427 284.43 387.996 284.43 388.599C284.43 388.834 284.844 388.867 285.641 388.733C286.279 388.633 287.587 388.432 288.511 388.331C290.329 388.097 290.52 388.331 289.787 390.04C289.468 390.743 289.213 390.877 287.969 390.877C285.163 390.877 283.537 392.753 284.398 395.03C284.621 395.6 284.812 396.203 284.844 396.37C284.972 396.906 279.583 399.586 276.936 400.289C274.895 400.859 273.396 401.026 269.442 401.026C266.732 401.026 263.958 400.926 263.32 400.792C262.267 400.591 262.108 400.457 262.108 399.619V398.681L266.509 398.481C272.695 398.213 276.362 396.973 279.551 394.059C282.389 391.513 284.143 385.652 283.186 381.934C282.74 380.192 281.273 378.818 279.838 378.818C278.594 378.818 278.052 379.321 278.052 380.493C278.052 381.565 278.594 382.168 279.519 382.168C280.284 382.168 280.826 381.13 280.412 380.46C280.284 380.225 280.38 380.125 280.635 380.225C281.623 380.56 282.357 382.603 282.325 384.848C282.229 390.81 278.275 395.298 271.834 396.739C270.622 397.007 267.975 397.241 265.966 397.241H262.363L260.545 395.265C259.015 393.59 258.409 393.188 256.559 392.585C253.721 391.647 251.521 391.681 248.492 392.719C245.462 393.724 245.207 393.724 244.155 392.887C243.294 392.183 242.337 391.982 242.337 392.552C242.337 392.719 242.784 393.188 243.294 393.624C244.442 394.494 244.474 394.695 243.485 395.935L242.72 396.906L241.987 395.365C240.966 393.121 239.18 391.882 237.012 391.882C235.609 391.882 235.163 392.049 234.493 392.719C233.377 393.892 233.504 396.035 234.78 397.007C235.386 397.509 235.737 397.61 235.992 397.342C236.215 397.107 236.024 396.638 235.29 395.767C234.334 394.595 234.302 394.528 234.844 393.892C235.577 393.054 237.363 392.451 238.256 392.719C238.67 392.853 239.34 393.289 239.723 393.691C242.082 395.901 241.891 399.318 239.308 402.567C238.32 403.773 237.49 403.873 236.374 402.935C235.322 402.065 234.334 402.098 233.281 402.969C232.133 403.907 232.675 404.644 233.855 403.806C234.939 403.103 235.864 403.136 236.279 403.907C236.566 404.476 236.406 404.644 234.812 405.28C231.559 406.553 227.701 406.788 217.911 406.285C207.675 405.783 197.885 405.984 193.708 406.754C190.169 407.457 187.235 408.831 186.023 410.405L185.13 411.577L183.727 410.305C181.814 408.529 179.486 407.658 174.575 406.921C168.166 405.95 164.467 405.85 154.805 406.319C143.197 406.921 139.084 406.888 136.469 406.151C133.599 405.314 133.185 405.079 133.599 404.275C134.077 403.337 135.098 403.136 136.055 403.773C137.266 404.61 137.745 403.907 136.692 402.801C135.576 401.629 134.428 401.696 133.217 402.935C132.706 403.505 132.164 403.94 132.005 403.94C131.558 403.94 129.709 401.529 129.262 400.39C128.688 398.949 128.688 396.504 129.262 395.064C130.187 392.786 133.695 391.681 135.034 393.255C135.64 393.959 135.64 393.959 134.715 396.303C134.396 397.107 135.544 397.107 136.214 396.303C138.191 393.959 136.405 391.547 132.706 391.547C130.347 391.547 128.784 392.853 127.732 395.734C127.668 395.901 127.158 395.6 126.584 395.03L125.563 393.959L126.552 393.188C127.094 392.786 127.54 392.15 127.54 391.815C127.54 391.044 127.445 391.044 125.914 392.116L124.639 392.987L122.502 392.183C120.876 391.58 119.728 391.379 117.655 391.379C114.211 391.379 112.043 392.15 110.002 394.059C108.599 395.365 108.216 395.533 106.335 395.734C98.8412 396.605 92.3042 393.624 89.5299 388.13C88.5414 386.187 88.4776 381.163 89.3705 379.689L89.9763 378.751L90.5822 379.79C91.2519 380.962 91.8258 381.096 92.5593 380.225C94.2812 378.249 91.7621 376.608 89.4023 378.115C87.9355 379.053 87.234 381.23 87.4253 384.077C87.8717 389.973 90.8054 393.657 96.8323 395.968C98.2353 396.504 99.7979 396.705 103.306 396.873L107.929 397.074V398.213C107.929 399.251 107.802 399.418 106.813 399.686C104.868 400.222 96.7366 399.753 94.1218 398.949C90.9649 397.978 86.2135 395.935 85.7352 395.365C85.4482 394.997 85.4801 394.595 85.8628 393.624C86.2773 392.552 86.2773 392.217 85.9266 391.312C85.4163 390.04 84.6829 389.604 82.7377 389.303C81.239 389.102 80.665 388.432 80.665 386.958C80.665 386.254 82.7059 386.522 84.6191 387.527C85.4801 387.996 86.2454 388.197 86.6281 388.063C87.1383 387.829 87.1383 387.728 86.3411 387.025C85.8628 386.589 84.3321 385.819 82.8972 385.283C80.3461 384.345 79.804 383.809 80.2186 382.704C80.5056 381.967 81.0796 382.034 82.8334 383.005C84.4916 383.943 85.4482 384.077 85.4482 383.374C85.4482 382.771 84.3003 382 82.2913 381.297C80.4099 380.661 80.2186 380.426 80.4737 379.287C80.7288 378.215 81.1115 378.249 83.3117 379.689C84.7467 380.627 85.2569 380.828 85.5439 380.493C85.9903 380.024 84.3959 378.45 82.5145 377.546C81.1752 376.909 81.0477 376.541 81.8768 375.469L82.4508 374.732L84.4916 376.775C85.5758 377.88 86.5962 378.818 86.7238 378.818C86.8513 378.818 87.0745 378.584 87.1702 378.282C87.3296 377.88 86.7238 377.077 85.0975 375.469L82.8015 373.258L84.4916 371.516C86.6281 369.306 88.7327 367.832 90.1677 367.564C91.1562 367.363 91.4113 367.463 92.0491 368.234C92.8463 369.205 92.9738 370.109 92.4636 371.114C92.0491 371.918 92.5593 372.287 93.4202 371.784C94.4725 371.181 94.2812 369.071 93.0695 367.597C92.1447 366.492 91.9853 366.425 90.072 366.425C88.9559 366.425 87.9993 366.559 87.9355 366.693C87.9036 366.86 87.1383 367.463 86.2454 368.1C85.3845 368.703 83.9814 369.942 83.1842 370.846L81.7173 372.488L79.3576 371.148C74.5744 368.468 69.9506 367.597 65.4225 368.569C61.6279 369.373 60.0972 370.176 57.8651 372.588C55.5054 375.1 54.4212 377.278 54.2617 379.89L54.1342 381.766L51.4237 382C49.0002 382.235 48.4581 382.168 46.194 381.364C41.921 379.89 41.3152 379.12 42.9096 377.144C44.7272 374.899 48.4262 373.794 50.3714 374.966C50.8178 375.234 51.4875 375.435 51.902 375.469C52.5398 375.469 52.5717 375.368 52.2847 374.799C52.0933 374.43 51.5512 373.928 51.0729 373.66C47.7884 371.918 43.069 373.459 41.4427 376.842C40.6455 378.416 40.3904 378.316 39.1149 375.904C38.1583 374.028 37.2016 369.942 37.4567 368.87C37.7118 367.731 39.0511 367.53 40.1672 368.401C41.379 369.339 42.1443 369.339 42.0167 368.401C41.9529 367.999 41.6978 367.564 41.4427 367.43C41.1876 367.296 40.6774 367.061 40.3266 366.86C39.9121 366.659 39.2425 366.659 38.4771 366.86ZM75.4035 371.315C77.827 371.952 80.6331 373.258 80.8564 373.928C81.1433 374.698 80.0592 376.574 79.4852 376.34C79.1982 376.206 77.6994 375.904 76.105 375.603C71.2899 374.732 66.6981 375.636 60.5756 378.718C58.9174 379.555 57.0679 380.46 56.462 380.728L55.3778 381.197L55.601 379.79C56.5577 373.426 61.596 370.243 69.9825 370.645C71.9277 370.746 74.3512 371.047 75.4035 371.315ZM306.464 372.923C307.644 373.191 309.334 373.727 310.227 374.162C313.193 375.502 315.68 379.254 315.68 382.402C315.68 383.441 315.616 383.541 314.978 383.34C314.564 383.206 312.938 382.369 311.311 381.465C304.647 377.747 298.365 376.507 292.019 377.68C290.903 377.88 290.839 377.847 290.361 376.641C290.074 375.938 289.882 375.335 289.946 375.268C290.329 374.866 293.358 373.76 294.857 373.493C295.877 373.292 297.44 373.024 298.301 372.856C300.756 372.387 304.136 372.421 306.464 372.923ZM76.2007 376.809C79.8678 377.412 79.7722 377.378 79.5489 378.584C79.1982 380.326 78.7836 380.594 76.9979 380.125C75.8499 379.823 75.3397 379.823 74.8933 380.091C74.5744 380.326 73.4583 380.493 72.406 380.493C71.1305 380.493 70.429 380.661 70.142 380.996C69.9188 381.297 69.4723 381.431 69.1534 381.331C68.7708 381.197 68.4838 381.297 68.3562 381.632C68.2606 381.934 67.846 382.168 67.4315 382.168C67.0488 382.168 66.5386 382.402 66.3154 382.67C66.0922 382.938 65.7414 383.173 65.5182 383.173C65.295 383.173 65.0399 383.407 64.9123 383.675C64.8167 383.943 64.4659 384.178 64.1151 384.178C63.7644 384.178 63.3817 384.312 63.286 384.513C63.1904 384.68 62.8715 384.848 62.6483 384.848C62.3932 384.848 61.309 385.451 60.2567 386.154C59.1725 386.891 58.1202 387.427 57.9288 387.326C57.323 387.092 55.3459 383.139 55.6648 382.838C55.8242 382.704 57.1635 382.168 58.6623 381.666C60.161 381.163 63.1266 379.924 65.2631 378.952C70.7478 376.407 72.0871 376.139 76.2007 376.809ZM301.33 379.019C302.287 379.321 304.71 380.426 306.751 381.498C308.76 382.536 311.439 383.742 312.651 384.178C313.894 384.58 315.01 385.049 315.17 385.216C315.329 385.35 315.01 386.455 314.468 387.661C313.607 389.571 313.352 389.872 312.651 389.872C312.14 389.872 311.407 389.47 310.833 388.834C310.291 388.298 309.685 387.896 309.462 387.996C309.239 388.063 308.856 387.862 308.569 387.494C308.282 387.159 307.835 386.958 307.612 387.058C307.357 387.159 307.07 386.991 306.974 386.723C306.847 386.422 306.432 386.187 305.986 386.187C305.571 386.187 305.157 385.953 305.029 385.685C304.934 385.417 304.583 385.183 304.264 385.183C303.913 385.183 303.467 384.982 303.244 384.714C303.052 384.446 302.67 384.312 302.414 384.412C302.191 384.513 301.872 384.345 301.777 384.044C301.681 383.742 301.33 383.508 301.011 383.508C300.661 383.508 300.342 383.374 300.214 383.173C300.119 383.005 299.832 382.938 299.608 383.039C299.385 383.139 299.034 382.972 298.811 382.704C298.524 382.335 298.205 382.268 297.599 382.536C297.025 382.771 296.643 382.704 296.164 382.335C295.654 382 294.985 381.9 293.645 382.067L291.796 382.268L291.604 381.029C291.19 378.718 291.413 378.584 296.42 378.517C298.556 378.483 300.182 378.651 301.33 379.019ZM46.194 382.838C48.1711 383.474 49.0321 383.575 51.4556 383.407L54.3893 383.24L55.4097 385.618C55.9518 386.924 56.3663 388.03 56.2707 388.13C56.2069 388.197 54.5806 388.298 52.6992 388.298C49.8612 388.331 48.9364 388.197 47.4058 387.561C44.5678 386.388 42.7183 384.479 42.2399 382.235L42.0167 381.096L42.9415 381.599C43.4198 381.867 44.8866 382.436 46.194 382.838ZM327.606 385.317C326.968 387.259 325.342 389.035 323.365 389.973C321.802 390.709 317.529 391.145 315.584 390.743L314.5 390.542L315.648 388.03L316.796 385.551L319.985 385.518C322.6 385.484 323.588 385.317 325.565 384.546C326.873 384.044 327.989 383.675 328.021 383.675C328.084 383.709 327.893 384.446 327.606 385.317ZM79.5489 387.996C79.8678 389.403 79.9316 389.269 77.6038 391.078C76.8703 391.647 76.7747 391.915 77.0617 392.25C77.3806 392.585 77.6994 392.485 78.7199 391.781C79.4214 391.279 80.1229 390.877 80.2505 390.877C80.5375 390.877 83.0247 394.863 82.8653 395.03C82.5145 395.365 79.1344 395.901 77.4443 395.901C73.3945 395.901 70.8754 392.987 72.1509 389.772C72.693 388.432 73.9048 387.628 76.3601 386.991C78.7517 386.355 79.1663 386.489 79.5489 387.996ZM295.654 389.604C298.556 390.91 299.481 393.088 298.11 395.432C296.675 397.911 293.9 398.715 290.01 397.744C288.703 397.409 287.491 396.973 287.3 396.772C286.981 396.37 289.627 392.552 290.201 392.552C290.393 392.552 291.19 393.088 291.987 393.724C293.039 394.561 293.582 394.796 293.805 394.561C294.411 393.925 293.805 393.255 291.03 391.379C290.584 391.078 290.584 390.91 291.03 389.738C291.541 388.499 291.573 388.465 292.816 388.666C293.518 388.8 294.793 389.202 295.654 389.604ZM84.1089 391.078C84.9061 391.647 85.0975 393.557 84.364 393.557C83.9495 393.557 81.9405 391.212 81.9405 390.743C81.9405 390.341 83.4074 390.542 84.1089 391.078ZM287.905 393.389C287.331 394.227 286.63 395.131 286.311 395.399C285.833 395.901 285.769 395.868 285.482 394.997C285.291 394.494 285.227 393.858 285.322 393.624C285.514 392.954 287.331 391.882 288.192 391.882C288.926 391.882 288.926 391.915 287.905 393.389ZM122.088 393.423C122.63 393.557 123.076 393.758 123.076 393.892C123.076 394.729 109.811 399.887 109.237 399.217C108.854 398.748 108.79 397.643 109.141 397.141C109.364 396.806 110.448 396.337 111.596 396.069C114.881 395.298 116.061 394.896 116.061 394.561C116.061 394.093 114.562 394.16 112.553 394.729C111.596 394.997 110.767 395.164 110.704 395.064C110.512 394.896 111.883 394.16 113.35 393.691C114.69 393.255 120.398 393.088 122.088 393.423ZM257.133 394.829C259.398 395.7 260.832 396.638 260.227 396.839C260.003 396.906 258.377 396.504 256.655 395.901C254.901 395.298 253.371 394.93 253.275 395.03C252.733 395.6 254.423 396.605 257.102 397.241C260.577 398.112 261.151 398.38 261.151 399.284C261.151 400.423 260.29 400.39 256.432 399.083C250.915 397.241 246.451 395.164 246.929 394.662C247.854 393.691 254.391 393.825 257.133 394.829Z" fill="#7C8EBE"/>
<path d="M175.149 417.138C172.311 418.478 172.535 423.234 175.564 426.014C179.104 429.297 186.119 429.967 191.253 427.555C193.581 426.45 195.653 424.272 195.94 422.631C196.355 420.32 194.25 417.004 192.369 417.004C191.444 417.004 189.722 418.679 189.722 419.616C189.722 420.688 190.934 422.028 191.923 422.028C193.676 422.028 194.091 420.655 192.528 420.186C191.093 419.717 191.03 418.511 192.433 418.511C193.23 418.511 193.485 418.746 194.123 420.018C195.048 421.995 195.016 422.799 193.836 424.205C192.592 425.679 189.69 426.684 185.896 426.952C180.602 427.287 175.883 425.512 174.48 422.631C173.778 421.191 173.778 421.023 174.193 419.918C174.735 418.645 175.532 418.009 176.712 418.009C177.637 418.009 178.243 418.578 178.243 419.449C178.243 420.018 178.083 420.085 177.095 419.918C175.66 419.65 175.213 420.487 176.297 421.425C177.318 422.263 178.115 422.196 179.104 421.157C180.538 419.65 179.518 417.138 177.254 416.836C176.648 416.736 175.723 416.87 175.149 417.138Z" fill="#7C8EBE"/>
</svg>
